<svg id="Layer_1" data-name="Layer 1" xmlns="http://www.w3.org/2000/svg" viewBox="0 0 24 24"><defs><style>.cls-1{fill:none;}.cls-2{fill:#424242;}</style></defs><rect class="cls-1" width="24" height="24"/><path class="cls-2" d="M9.46,14.858l.075-.871,2.319,1.583-2.53,1.218.056-.876c-.468-.09-.923-.168-1.373-.266A14.275,14.275,0,0,1,4.023,14.27a4.031,4.031,0,0,1-1.21-.957,1.47,1.47,0,0,1,.109-2.147,4.233,4.233,0,0,1,1.65-.982c.684-.235,1.388-.412,2.084-.614a.674.674,0,0,1,.127,0c-.35.114-.656.207-.957.314a7.636,7.636,0,0,0-2,.971,3.793,3.793,0,0,0-.756.714.962.962,0,0,0,.068,1.338,3.309,3.309,0,0,0,1.1.773,11.565,11.565,0,0,0,3.12.917c.576.1,1.158.16,1.737.235C9.2,14.848,9.324,14.849,9.46,14.858Z"/><path class="cls-2" d="M12.314,16.182V14.93c.507,0,1.03.021,1.551,0a17.318,17.318,0,0,0,5.141-.893,8.794,8.794,0,0,0,1.387-.683,2.2,2.2,0,0,0,.583-.547.913.913,0,0,0,.054-1.145,3.549,3.549,0,0,0-.711-.757,7.563,7.563,0,0,0-2.208-1.1.821.821,0,0,1-.255-.126c.158.042.317.082.474.125a7.683,7.683,0,0,1,2.011.811,4.181,4.181,0,0,1,.791.616,1.452,1.452,0,0,1,.123,2.011,3.836,3.836,0,0,1-1.176,1,12,12,0,0,1-3.066,1.2,25.585,25.585,0,0,1-4.408.729C12.518,16.174,12.432,16.176,12.314,16.182Z"/><path class="cls-2" d="M17.664,8.554a.671.671,0,1,1,.68-.676.672.672,0,0,1-.68.676Zm.016-.371a.3.3,0,0,0,.288-.314V7.862a.3.3,0,1,0-.288.321Z"/><path class="cls-2" d="M6.738,12.346a2.251,2.251,0,0,0,1.038.309c.543,0,.817-.294.817-.672,0-.5-.439-.72-.9-.72H7.267V10.42h.406c.35-.008.8-.154.8-.58,0-.3-.22-.526-.66-.526a1.873,1.873,0,0,0-.934.3l-.213-.851a2.558,2.558,0,0,1,1.381-.379A1.306,1.306,0,0,1,9.527,9.639a1.19,1.19,0,0,1-.817,1.168v.015a1.205,1.205,0,0,1,.968,1.222c0,.89-.693,1.539-1.827,1.539a2.407,2.407,0,0,1-1.325-.355Z"/><path class="cls-2" d="M13.216,9.306a2.626,2.626,0,0,0-.406.016,1.474,1.474,0,0,0-1.456,1.206h.022a1.187,1.187,0,0,1,.948-.4,1.453,1.453,0,0,1,1.38,1.64,1.706,1.706,0,0,1-1.648,1.817c-1.188,0-1.772-1-1.772-2.2a3.211,3.211,0,0,1,.79-2.235A2.515,2.515,0,0,1,12.8,8.409a2.79,2.79,0,0,1,.419-.008Zm-.57,2.52c0-.463-.22-.866-.667-.866a.684.684,0,0,0-.618.449.752.752,0,0,0-.041.294c.021.533.247,1.013.72,1.013.372,0,.606-.378.606-.888Z"/><path class="cls-2" d="M17.474,10.962c0,1.554-.556,2.621-1.7,2.621s-1.662-1.168-1.669-2.592c0-1.454.549-2.606,1.7-2.606C17.007,8.386,17.474,9.585,17.474,10.962Zm-2.314.03c-.007,1.152.24,1.7.645,1.7s.624-.572.624-1.717c0-1.114-.213-1.7-.632-1.7-.383,0-.644.549-.637,1.716Z"/></svg>