<svg xmlns="http://www.w3.org/2000/svg" width="57" height="57" viewBox="0 0 57 57"><defs><style>.a{fill:none;}.b{fill:#424242;}</style></defs><rect class="a" width="57" height="57"/><path class="b" d="M36.046,28.982h5.985a3.446,3.446,0,0,1,3.4,2.571c.377,1.311.777,2.622,1.127,3.942a2.151,2.151,0,0,0,1.9,1.643c1.477.279,2.942.616,4.417.9a2.311,2.311,0,0,1,1.954,1.992,36.323,36.323,0,0,1,.691,5.928c.051.88.07,1.763.081,2.645a1.051,1.051,0,0,1-1.17,1.2c-.942.011-1.881,0-2.847,0-.048.143-.095.266-.132.392a4.443,4.443,0,0,1-8.559.017.471.471,0,0,0-.556-.415q-9.627.013-19.255.005c-.259,0-.43.006-.522.339a4.443,4.443,0,0,1-8.582.038c-.034-.114-.074-.228-.124-.376H11.3c-.934,0-1.3-.369-1.3-1.3V28.146a2.533,2.533,0,0,1,2.754-2.761q10.311-.011,20.623,0a2.5,2.5,0,0,1,2.667,2.7C36.049,28.366,36.046,28.651,36.046,28.982ZM33.979,47.735c.008-.146.015-.221.015-.3V28.048c0-.527-.1-.606-.719-.606H12.929c-.829,0-.864.034-.864.84V47.262c0,.146.015.293.026.475.5,0,.974-.025,1.44.009.347.025.491-.1.618-.422a4.434,4.434,0,0,1,8.255.041.5.5,0,0,0,.555.38q4.719-.015,9.441-.01Zm19.517,0a1.25,1.25,0,0,0,.027-.214c-.161-2.045-.276-4.094-.5-6.131-.144-1.285-.219-1.277-1.486-1.551-.03-.006-.057-.019-.088-.025a27.018,27.018,0,0,0-3.9-.649c-3.663-.089-7.329-.031-10.994-.031h-.479V47.7a1.8,1.8,0,0,0,.241.034c2.1,0,4.2,0,6.3.011.3,0,.336-.179.414-.375a4.455,4.455,0,0,1,8.312.023c.053.131.186.32.29.325C52.242,47.751,52.864,47.735,53.5,47.735Zm-8.55-10.686c-.534-1.781-1.036-3.528-1.587-5.26a1.126,1.126,0,0,0-1.206-.779c-1.747.02-3.495.006-5.244.007-.684,0-.865.179-.867.863q0,2.348,0,4.7c0,.16.019.319.03.473ZM18.27,46.436a2.555,2.555,0,1,0,2.552,2.557,2.554,2.554,0,0,0-2.552-2.557Zm28.926,0a2.538,2.538,0,1,0,1.8.755,2.539,2.539,0,0,0-1.8-.755Z" transform="translate(-4.3 -10.913)"/><path class="b" d="M31.444,44.893c0,.855,0,1.628,0,2.4,0,.658-.193.849-.836.85q-2.03,0-4.058,0c-.673,0-.855-.185-.855-.877,0-.771,0-1.539,0-2.371H23.419c-.826,0-.982-.156-.98-.986q0-1.984,0-3.968c0-.595.2-.792.795-.8.789-.01,1.578,0,2.422,0,.012-.192.03-.352.031-.513,0-.684-.009-1.368.009-2.052.011-.46.228-.684.675-.684q2.188-.014,4.377,0c.479,0,.684.238.693.765.01.8,0,1.606,0,2.483h.929c.547,0,1.095-.011,1.642.007a.609.609,0,0,1,.674.684q.012,2.189,0,4.378c0,.456-.235.673-.728.679C33.146,44.9,32.329,44.893,31.444,44.893Zm1.932-1.278V40.423c-.8,0-1.559,0-2.318,0-.71-.005-.89-.189-.892-.9V37.211H26.977v2.226c0,.833-.156.987-.988.988H23.762v3.192h2.271c.77,0,.937.165.942.939,0,.755,0,1.51,0,2.273h3.192c0-.814,0-1.589,0-2.363,0-.649.2-.842.847-.847C31.788,43.611,32.563,43.615,33.376,43.615Z" transform="translate(-9.649 -15.432)"/></svg>