<svg xmlns="http://www.w3.org/2000/svg" width="44" height="44" viewBox="0 0 44 44"><defs><style>.a{fill:none;}.b{fill:#424242;}</style></defs><g transform="translate(0 -0.049)"><rect class="a" width="44" height="44" transform="translate(0 0.049)"/><path class="b" d="M18.412,55.031a1.156,1.156,0,0,1-.759-1.688q1.013-3.042,2.021-6.084a1.244,1.244,0,0,1,1.437-1.038H22.9c.023,0,.044-.006.124-.017V36.356a8.8,8.8,0,0,1,16.283-4.693,8.953,8.953,0,0,1,1.336,4.762v9.8h1.982a1.175,1.175,0,0,1,1.327.944q1.03,3.072,2.053,6.147c.305.918.12,1.332-.749,1.718ZM38.44,46.207V36.523a6.9,6.9,0,0,0-.762-3.274A6.607,6.607,0,0,0,25.225,36.47v9.736Zm3.616,2.228H21.609l-1.459,4.38H43.513Z" transform="translate(-9.808 -15.387)"/><path class="b" d="M48.848,10a1.339,1.339,0,0,1,.837,1.448c-.036.925-.008,1.857-.009,2.786a1.14,1.14,0,0,1-1.1,1.273,1.158,1.158,0,0,1-1.117-1.255c.033-.951.03-1.9,0-2.855a1.26,1.26,0,0,1,.9-1.4Z" transform="translate(-26.549 -5.595)"/><path class="b" d="M15.255,45h1.579a1.1,1.1,0,1,1,0,2.2q-1.579,0-3.158,0A1.11,1.11,0,0,1,12.5,46.117,1.124,1.124,0,0,1,13.676,45Z" transform="translate(-6.994 -25.176)"/><path class="b" d="M77.811,47.2H76.232a1.1,1.1,0,0,1-.011-2.2q1.6-.005,3.193,0a1.1,1.1,0,1,1,.011,2.2C78.887,47.2,78.349,47.2,77.811,47.2Z" transform="translate(-42.034 -25.175)"/><path class="b" d="M71.538,21.382a2.408,2.408,0,0,1-.32.655q-1.211,1.265-2.472,2.482a1.041,1.041,0,0,1-1.484-.078,1.063,1.063,0,0,1-.02-1.489c.783-.8,1.581-1.593,2.379-2.383a1.025,1.025,0,0,1,1.2-.216,1.2,1.2,0,0,1,.713,1.03Z" transform="translate(-37.458 -11.327)"/><path class="b" d="M22.633,21.409a1.183,1.183,0,0,1,.661-1.036,1.029,1.029,0,0,1,1.216.156c.815.786,1.62,1.586,2.4,2.4a1.091,1.091,0,1,1-1.554,1.531q-1.2-1.153-2.354-2.354A2.938,2.938,0,0,1,22.633,21.409Z" transform="translate(-12.663 -11.325)"/><path class="b" d="M44.382,50.71H40v-8.7a4.426,4.426,0,0,1,3.986-4.483,3.692,3.692,0,0,1,.4,0Z" transform="translate(-22.38 -20.992)"/></g></svg>