<svg id="Layer_1" data-name="Layer 1" xmlns="http://www.w3.org/2000/svg" viewBox="0 0 24 24"><defs><style>.cls-1{fill:none;}.cls-2{fill:#424242;}</style></defs><rect class="cls-1" width="24" height="24"/><circle class="cls-1" cx="11.753" cy="3.762" r="0.72"/><path class="cls-2" d="M18.67,4.38H14.141l-.136-.391a2.354,2.354,0,0,0-4.5,0l-.136.391H4.836a1.1,1.1,0,0,0-.28.03,1.38,1.38,0,0,0-.71.4,1.471,1.471,0,0,0-.306.476,1.452,1.452,0,0,0-.111.556v14.4a1.522,1.522,0,0,0,.417,1.043,1.375,1.375,0,0,0,.682.4,1.769,1.769,0,0,0,.308.024H18.67a1.439,1.439,0,0,0,1.407-1.464V5.845A1.44,1.44,0,0,0,18.67,4.38ZM11.753,3.042a.72.72,0,1,1-.72.72A.72.72,0,0,1,11.753,3.042Zm7.552,17.28a.481.481,0,0,1-.48.48H4.68a.481.481,0,0,1-.48-.48V5.682a.482.482,0,0,1,.48-.48H18.825a.482.482,0,0,1,.48.48Z"/><polygon class="cls-2" points="8.225 16.426 6.509 16.426 6.509 17.899 8.225 17.899 13.566 17.899 15.282 17.899 15.282 16.426 13.566 16.426 8.225 16.426"/><rect class="cls-2" x="6.509" y="12.311" width="10.489" height="1.473"/><rect class="cls-2" x="6.509" y="8.196" width="10.489" height="1.473"/></svg>