<svg xmlns="http://www.w3.org/2000/svg" width="21.898" height="25.508" viewBox="0 0 21.898 25.508"><defs><style>.a{fill:none;}.b{fill:#424242;}</style></defs><g transform="translate(0 0)"><circle class="a" cx="0.947" cy="0.947" r="0.947" transform="translate(10.002 0.947)"/><path class="b" d="M35.1,10.707H29.141l-.179-.514a3.1,3.1,0,0,0-5.923,0l-.178.514H16.9a1.48,1.48,0,0,0-.369.039,1.827,1.827,0,0,0-.934.532,1.96,1.96,0,0,0-.4.626,1.888,1.888,0,0,0-.146.731V31.583a2,2,0,0,0,.547,1.371,1.82,1.82,0,0,0,.9.523,2.551,2.551,0,0,0,.406.032H35.1a1.894,1.894,0,0,0,1.851-1.926V12.634A1.894,1.894,0,0,0,35.1,10.707ZM26,8.947a.947.947,0,1,1-.947.947A.947.947,0,0,1,26,8.947Zm9.934,22.73a.633.633,0,0,1-.631.631H16.7a.633.633,0,0,1-.631-.631V12.42a.633.633,0,0,1,.631-.631H35.3a.633.633,0,0,1,.631.631Z" transform="translate(-15.052 -8)"/><path class="b" d="M15.088,58.766H12.83V60.7H24.37V58.766H15.088Z" transform="translate(-8.78 -40.214)"/><rect class="b" width="13.798" height="1.937" transform="translate(4.05 13.139)"/><rect class="b" width="13.798" height="1.937" transform="translate(4.05 7.726)"/></g></svg>