<svg id="Layer_1" data-name="Layer 1" xmlns="http://www.w3.org/2000/svg" viewBox="0 0 100 100"><defs><style>.cls-1{fill:none;}.cls-2{fill:#fff;}</style></defs><rect class="cls-1" width="100" height="100"/><path class="cls-2" d="M17.857,50.042H10.016V17.93h7.655V10.005h8.145v7.6h48.25V10h8.146v7.718h7.772v32.29H82.265V89.993H74.241V50.2H25.982V90H17.857Zm6.3-8.111c3.415,0,5.966-.144,8.492.04a6.89,6.89,0,0,0,6.236-2.5c2.529-2.886,5.394-5.477,8.109-8.2,1.637-1.642,3.263-3.3,5.335-5.39-4.177,0-7.635-.033-11.091.032a2.685,2.685,0,0,0-1.671.708c-4.952,4.863-9.858,9.779-15.412,15.31Zm23.684-.149c1.6.071,2.5.023,3.36.163,6.116.994,10.819-.986,14.708-5.941,2.77-3.529,6.332-6.437,10.05-10.129-4.253,0-7.7-.044-11.146.039a3.084,3.084,0,0,0-1.888.852c-4.889,4.806-9.725,9.663-15.086,15.016ZM17.958,25.955v9.579l9.571-9.579Zm54.2,15.814h9.893V31.886Z"/></svg>