<svg id="Layer_1" data-name="Layer 1" xmlns="http://www.w3.org/2000/svg" viewBox="0 0 1378.64 152"><defs><style>.cls-1{fill:#2d3079;}.cls-2{fill:#db1a61;}</style></defs><path class="cls-1" d="M242.12,631.129c11.206,0,19.425,4.872,23.142,13.719l.082.2.108.18a3.634,3.634,0,0,0,3.215,2h2.164l.38-.758,3.378-1.24,3.029-1.918-1.135-2.729c-5.6-13.426-18.125-21.126-34.363-21.126-22.74,0-37.433,14.959-37.433,38.11s14.693,38.111,37.433,38.111c15.312,0,27.468-6.984,33.349-19.158l1.637-3.378-11.15-4.474-1.433,2.921c-3.923,8.006-11.88,12.416-22.4,12.416-15.7,0-25.076-9.883-25.076-26.438S226.418,631.129,242.12,631.129Z" transform="translate(-32.047 -568.073)"/><path class="cls-1" d="M333.339,619.457c-22.041,0-37.434,15.672-37.434,38.11,0,22.083,15.243,38.111,36.244,38.111,10.629,0,19.873-3.8,26.333-10.771l.1,8.817,12.188-.3v-35.69C370.769,634.841,355.727,619.457,333.339,619.457Zm25.075,38.11c0,16.161-9.842,26.605-25.075,26.605s-25.076-10.444-25.076-26.605c0-15.956,9.843-26.266,25.076-26.266C349.275,631.3,358.414,640.875,358.414,657.567Z" transform="translate(-32.047 -568.073)"/><path class="cls-1" d="M429.479,621.219a34.392,34.392,0,0,0-8.491-.909c-11.783,0-25.542,6.646-25.542,25.379l.138,47.95h9.141l1.46-.556,1.616-1.638V645.168c0-8.525,4.437-12.847,13.187-12.847a33.994,33.994,0,0,1,6.455.594l3.451.661,1.538-8.171v-.28A3.811,3.811,0,0,0,429.479,621.219Z" transform="translate(-32.047 -568.073)"/><path class="cls-1" d="M483.668,619.457c-23.09,0-37.434,14.6-37.434,38.11s14.344,38.111,37.434,38.111c12.414,0,22.515-4.286,29.212-12.393l2.79-3.372-9.369-4.744h-.717a4.171,4.171,0,0,0-3,1.275l-.115.124c-4.321,4.935-10.646,7.437-18.8,7.437-14.533,0-23.568-8.168-24.933-22.463l62.18.1.184-4.076C521.1,634.06,506.756,619.457,483.668,619.457ZM459.3,650.2c2.447-12.313,11.059-19.073,24.369-19.073,12.863,0,21.888,7.1,24.358,19.073Z" transform="translate(-32.047 -568.073)"/><path class="cls-1" d="M578.113,619.457c-22.04,0-37.432,15.672-37.432,38.11,0,22.083,15.242,38.111,36.243,38.111,10.63,0,19.874-3.8,26.333-10.77l.1,8.816,12.189-.3v-35.69C615.544,634.841,600.5,619.457,578.113,619.457Zm25.075,38.11c0,16.161-9.842,26.605-25.075,26.605s-25.076-10.444-25.076-26.605c0-15.956,9.843-26.266,25.076-26.266C594.049,631.3,603.188,640.875,603.188,657.567Z" transform="translate(-32.047 -568.073)"/><path class="cls-1" d="M668.6,631.133c5.613.134,12.534,1.231,16.271,8.576l.123.241.163.214a5.991,5.991,0,0,0,.958,1l1.555,1.263,6.179-2.3,3.015-1.984-1.173-2.7c-4.652-10.679-13.347-15.757-27.38-15.978-13.663,0-29.619,5.933-29.619,22.655,0,15.9,15.893,18.893,27.466,21.073l1.592.354c11.7,2.573,16.466,4.213,16.466,10.164,0,9.964-14.806,10.469-17.774,10.469-5.966,0-13.4-2.7-16.559-8.747l-.131-.25-.178-.225a4.118,4.118,0,0,0-3.183-1.758h-2.605l-.262.872-2.4.933-.221.134a3.8,3.8,0,0,0-1.749,4.536c4.141,11.817,17.381,16.011,27.462,16.011,7.028,0,29.958-1.61,29.958-22.313,0-14.79-15.892-19.406-27.818-21.586l-1.292-.277c-11.041-2.335-16.242-4.006-16.242-9.223C651.217,633.068,660.683,631.134,668.6,631.133Z" transform="translate(-32.047 -568.073)"/><path class="cls-1" d="M751.325,631.133c5.613.134,12.534,1.231,16.271,8.573l.124.244.167.22a6,6,0,0,0,.952.99l1.554,1.263,6.177-2.3,3.012-1.983-1.166-2.705c-4.651-10.679-13.347-15.757-27.38-15.978-13.663,0-29.619,5.933-29.619,22.655,0,15.9,15.892,18.893,27.465,21.073l1.592.354c11.7,2.573,16.465,4.213,16.465,10.164,0,9.964-14.8,10.469-17.771,10.469-5.966,0-13.4-2.705-16.561-8.749l-.132-.255-.18-.225a4.12,4.12,0,0,0-3.179-1.751H726.56l-.274.859-2.439.946-.22.132a3.779,3.779,0,0,0-1.751,4.538c4.14,11.817,17.381,16.011,27.462,16.011,7.027,0,29.957-1.61,29.957-22.313,0-14.79-15.893-19.406-27.818-21.586l-1.292-.277c-11.041-2.335-16.242-4.006-16.242-9.223C733.943,633.068,743.409,631.134,751.325,631.133Z" transform="translate(-32.047 -568.073)"/><path class="cls-1" d="M813.208,592.62a9.032,9.032,0,0,0-9.236,9.234c0,6.345,4.788,9.235,9.236,9.235a9.359,9.359,0,0,0,9.236-9.235A9.032,9.032,0,0,0,813.208,592.62Z" transform="translate(-32.047 -568.073)"/><polygon class="cls-1" points="774.976 53.633 775.116 125.566 784.261 125.566 785.721 125.01 787.341 123.371 787.204 53.338 774.976 53.633"/><path class="cls-1" d="M877.2,631.133c5.613.134,12.534,1.231,16.273,8.576l.12.237.164.216a5.938,5.938,0,0,0,.952.994l1.555,1.268,6.179-2.3,3.02-1.986-1.173-2.7c-4.649-10.679-13.345-15.758-27.38-15.979-13.663,0-29.619,5.933-29.619,22.655,0,15.9,15.893,18.893,27.466,21.073l1.594.354c11.7,2.574,16.463,4.214,16.463,10.164,0,9.964-14.8,10.469-17.771,10.469-5.966,0-13.4-2.705-16.562-8.75l-.133-.256-.18-.225a4.12,4.12,0,0,0-3.177-1.749h-2.555l-.275.859-2.44.946-.22.132a3.773,3.773,0,0,0-1.75,4.537c4.139,11.818,17.38,16.012,27.461,16.012,7.027,0,29.958-1.61,29.958-22.313,0-14.79-15.893-19.406-27.817-21.586l-1.293-.277c-11.04-2.334-16.242-4-16.242-9.223C859.814,633.068,869.28,631.134,877.2,631.133Z" transform="translate(-32.047 -568.073)"/><polygon class="cls-1" points="925.423 53.424 925.297 24.461 913.087 24.759 913.087 53.445 892.591 53.57 892.933 64.758 913.094 64.758 913.22 125.566 922.362 125.566 923.826 125.009 925.438 123.369 925.438 64.736 945.927 64.605 945.591 53.424 925.423 53.424"/><path class="cls-1" d="M1029.79,619.457c-22.039,0-37.432,15.672-37.432,38.11,0,22.083,15.242,38.111,36.242,38.111,10.634,0,19.88-3.8,26.337-10.775l.1,8.821,12.185-.3v-35.69C1067.221,634.841,1052.179,619.457,1029.79,619.457Zm25.079,38.11c0,16.161-9.844,26.605-25.079,26.605s-25.077-10.444-25.077-26.605c0-15.956,9.844-26.266,25.077-26.266C1045.728,631.3,1054.869,640.875,1054.869,657.567Z" transform="translate(-32.047 -568.073)"/><path class="cls-1" d="M1126.272,619.457c-21.524,0-34.375,13.488-34.375,36.086l.142,38.181,12.212-.3v-37.9c0-21.23,13.8-24.4,22.021-24.4,6.621,0,22.02,2.379,22.02,24.414l.141,38.1h9.134l1.451-.552,1.627-1.627V655.529C1160.645,632.942,1147.8,619.457,1126.272,619.457Z" transform="translate(-32.047 -568.073)"/><polygon class="cls-1" points="1180.901 53.424 1180.773 24.461 1168.563 24.759 1168.563 53.445 1148.073 53.57 1148.41 64.758 1168.571 64.758 1168.699 125.566 1177.839 125.566 1179.29 125.013 1180.917 123.387 1180.917 64.736 1201.406 64.605 1201.07 53.424 1180.901 53.424"/><path class="cls-1" d="M1257.92,674.32a9.861,9.861,0,0,0-10.082,10.083,10.094,10.094,0,0,0,10.082,10.085A10.348,10.348,0,0,0,1268,684.4,10.1,10.1,0,0,0,1257.92,674.32Z" transform="translate(-32.047 -568.073)"/><path class="cls-1" d="M1330.109,619.457c-22.039,0-37.43,15.672-37.43,38.11,0,22.083,15.241,38.111,36.241,38.111,10.631,0,19.876-3.8,26.336-10.774l.1,8.82,12.185-.3v-35.69C1367.541,634.841,1352.5,619.457,1330.109,619.457Zm25.077,38.11c0,16.161-9.843,26.605-25.077,26.605s-25.076-10.444-25.076-26.605c0-15.956,9.843-26.266,25.076-26.266C1346.046,631.3,1355.186,640.875,1355.186,657.567Z" transform="translate(-32.047 -568.073)"/><path class="cls-1" d="M1401.451,592.62a9.031,9.031,0,0,0-9.233,9.234c0,6.345,4.786,9.235,9.233,9.235a9.359,9.359,0,0,0,9.236-9.235A9.032,9.032,0,0,0,1401.451,592.62Z" transform="translate(-32.047 -568.073)"/><polygon class="cls-1" points="1363.224 53.633 1363.364 125.566 1372.507 125.566 1373.958 125.013 1375.588 123.386 1375.449 53.338 1363.224 53.633"/><path class="cls-2" d="M155.912,586.853a59.446,59.446,0,0,0-26.36-16.172,57.636,57.636,0,0,0-14.742-2.608,7.01,7.01,0,0,0-5.422,2.608,7.3,7.3,0,0,0-1.651,4.532,7.181,7.181,0,0,0,6.953,7.34c.181,0,18.3.674,31,14.333,9.425,10.137,13.974,25.049,13.521,44.32-.578,24.647-8.4,42.845-23.236,54.09a51.145,51.145,0,0,1-21.889,9.634,7,7,0,0,0-4.79,2.67,7.361,7.361,0,0,0,.732,9.865,6.979,6.979,0,0,0,5.538,1.865,47.991,47.991,0,0,0,8.278-1.865,66.741,66.741,0,0,0,20.344-10.36c12.844-9.643,28.336-28.842,29.2-65.551C173.93,618.276,168.051,599.872,155.912,586.853Z" transform="translate(-32.047 -568.073)"/><path class="cls-2" d="M117.187,673.112a6.86,6.86,0,0,0,4.1-1.354l10.806-7.961V630.071l12.449-3.59a7.024,7.024,0,0,0,4.243-3.439,7.376,7.376,0,0,0,.649-5.426,7.088,7.088,0,0,0-6.793-5.347,6.871,6.871,0,0,0-1.9.269l-22.724,6.552v37.267l-4.928,3.63A7.41,7.41,0,0,0,111.4,670,6.986,6.986,0,0,0,117.187,673.112Z" transform="translate(-32.047 -568.073)"/><path class="cls-2" d="M95.962,600.877H66.131a11.745,11.745,0,1,0,0,15.091H95.962a5.848,5.848,0,0,0,5.841-5.84v-3.41A5.848,5.848,0,0,0,95.962,600.877Zm-34.344,10.6a5.4,5.4,0,1,1,.948-3.056A5.418,5.418,0,0,1,61.618,611.479Z" transform="translate(-32.047 -568.073)"/><path class="cls-2" d="M95.962,669.886H66.688a11.746,11.746,0,1,0,0,15.091H95.962a5.847,5.847,0,0,0,5.841-5.84v-3.41A5.849,5.849,0,0,0,95.962,669.886Zm-33.787,10.6a5.4,5.4,0,1,1,.947-3.056A5.419,5.419,0,0,1,62.175,680.488Z" transform="translate(-32.047 -568.073)"/><path class="cls-2" d="M95.962,633.85H52.779a11.745,11.745,0,1,0,0,15.091H95.962a5.848,5.848,0,0,0,5.841-5.84V639.69A5.848,5.848,0,0,0,95.962,633.85ZM38.37,641.4a5.419,5.419,0,1,1,5.422,5.421A5.428,5.428,0,0,1,38.37,641.4Z" transform="translate(-32.047 -568.073)"/><path class="cls-2" d="M78.868,583.164H95.459a5.744,5.744,0,0,0,5.738-5.737v-3.616a5.751,5.751,0,0,0-5.738-5.738H78.868a5.751,5.751,0,0,0-5.738,5.738v3.616A5.744,5.744,0,0,0,78.868,583.164Z" transform="translate(-32.047 -568.073)"/><path class="cls-2" d="M95.459,704.982H78.868a5.744,5.744,0,0,0-5.738,5.738v3.615a5.751,5.751,0,0,0,5.738,5.738H95.459a5.751,5.751,0,0,0,5.738-5.738V710.72A5.744,5.744,0,0,0,95.459,704.982Z" transform="translate(-32.047 -568.073)"/></svg>