<svg id="Layer_1" data-name="Layer 1" xmlns="http://www.w3.org/2000/svg" viewBox="0 0 1214.133 134.917"><defs><style>.cls-1{fill:#db1a61;}.cls-2{fill:#2d3079;}</style></defs><rect class="cls-1" x="38.486" y="129.147" width="17.095" height="5.77" rx="1.275"/><path class="cls-1" d="M99.538,16.688C84.169.742,63.5.3,62.624.288a2.6,2.6,0,0,0-.069,5.192c.193,0,19.464.468,33.291,14.86,10,10.411,14.838,25.5,14.368,44.844-.6,24.631-8.808,42.917-24.4,54.351a54.22,54.22,0,0,1-23.489,9.914,2.6,2.6,0,0,0,.265,5.178,2.465,2.465,0,0,0,.272-.014,58.374,58.374,0,0,0,25.805-10.732c11.758-8.539,25.941-25.632,26.741-58.571C115.91,44.5,110.572,28.137,99.538,16.688Z" transform="translate(0.011)"/><path class="cls-1" d="M64.9,90.964A2.587,2.587,0,0,0,66.4,90.49l8.866-6.246V51.368l15.453-4.262a2.6,2.6,0,0,0-1.025-5.1,2.555,2.555,0,0,0-.355.1L70.068,47.418V81.555L63.4,86.25a2.6,2.6,0,0,0,1.5,4.719Z" transform="translate(0.011)"/><rect class="cls-1" x="38.486" width="17.095" height="5.77" rx="1.275"/><path class="cls-1" d="M54.294,19.745H33.281a6.859,6.859,0,1,0-.735,5.77H54.294a1.279,1.279,0,0,0,1.275-1.276V21.02A1.279,1.279,0,0,0,54.294,19.745Zm-27.53,7.227a5.131,5.131,0,1,1,3.569-1.457A5.131,5.131,0,0,1,26.764,26.972Z" transform="translate(0.011)"/><path class="cls-1" d="M54.294,110.071H32.967a6.849,6.849,0,1,0,0,5.77H54.294a1.279,1.279,0,0,0,1.275-1.275v-3.22A1.279,1.279,0,0,0,54.294,110.071Zm-22.413,2.885a5.125,5.125,0,1,1-.894-2.885A5.125,5.125,0,0,1,31.881,112.956Z" transform="translate(0.011)"/><path class="cls-1" d="M54.294,40.8H21a6.849,6.849,0,1,0,0,5.769H54.294A1.278,1.278,0,0,0,55.569,45.3V42.076A1.279,1.279,0,0,0,54.294,40.8ZM19.915,43.686a5.125,5.125,0,1,1-.894-2.885,5.125,5.125,0,0,1,.894,2.885Z" transform="translate(0.011)"/><path class="cls-1" d="M54.294,84.621H21a6.849,6.849,0,1,0,0,5.769H54.294a1.279,1.279,0,0,0,1.275-1.275V85.9A1.279,1.279,0,0,0,54.294,84.621ZM19.915,87.506a5.125,5.125,0,1,1-.894-2.885A5.125,5.125,0,0,1,19.915,87.506Z" transform="translate(0.011)"/><path class="cls-1" d="M54.294,62.628H13.051a6.849,6.849,0,1,0,0,5.77H54.294a1.279,1.279,0,0,0,1.275-1.275V63.9A1.279,1.279,0,0,0,54.294,62.628ZM11.966,65.513a5.125,5.125,0,1,1-.894-2.885,5.125,5.125,0,0,1,.894,2.885Z" transform="translate(0.011)"/><path class="cls-2" d="M176.444,55.935c9.951,0,17.25,4.326,20.551,12.183l.072.172.1.161a3.227,3.227,0,0,0,2.855,1.78h1.922l.337-.673,3-1.1,2.689-1.7-1.007-2.423c-4.973-11.922-16.095-18.76-30.515-18.76-20.192,0-33.239,13.283-33.239,33.842s13.047,33.841,33.239,33.841c13.6,0,24.392-6.2,29.614-17.011l1.454-3-9.9-3.973-1.272,2.594c-3.485,7.11-10.55,11.025-19.9,11.025-13.943,0-22.267-8.776-22.267-23.476S162.5,55.935,176.444,55.935Z" transform="translate(0.011)"/><path class="cls-2" d="M257.446,45.57c-19.572,0-33.241,13.917-33.241,33.842,0,19.609,13.536,33.841,32.185,33.841,9.438,0,17.647-3.377,23.383-9.564l.088,7.83,10.823-.264V79.563C290.681,59.228,277.327,45.57,257.446,45.57Zm22.267,33.842c0,14.351-8.74,23.624-22.267,23.624s-22.265-9.273-22.265-23.624c0-14.169,8.74-23.325,22.267-23.325C271.6,56.087,279.713,64.589,279.713,79.412Z" transform="translate(0.011)"/><path class="cls-2" d="M342.818,47.134a30.61,30.61,0,0,0-7.54-.806c-10.463,0-22.681,5.9-22.681,22.536l.122,42.58h8.117l1.3-.5,1.435-1.454V68.4c0-7.569,3.94-11.408,11.71-11.408a30.206,30.206,0,0,1,5.732.528l3.064.587,1.365-7.256V50.6A3.385,3.385,0,0,0,342.818,47.134Z" transform="translate(0.011)"/><path class="cls-2" d="M390.937,45.57c-20.5,0-33.241,12.968-33.241,33.842s12.737,33.841,33.241,33.841c11.023,0,19.994-3.805,25.94-11l2.477-3-8.319-4.212H410.4a3.7,3.7,0,0,0-2.665,1.132l-.1.11c-3.836,4.382-9.453,6.6-16.694,6.6-12.9,0-20.928-7.253-22.14-19.947l55.215.09.163-3.619C424.175,58.538,411.439,45.57,390.937,45.57ZM369.3,72.87c2.172-10.933,9.82-16.936,21.639-16.936,11.422,0,19.436,6.307,21.629,16.936Z" transform="translate(0.011)"/><path class="cls-2" d="M474.8,45.57c-19.571,0-33.239,13.917-33.239,33.842,0,19.609,13.535,33.841,32.183,33.841,9.439,0,17.648-3.376,23.384-9.563l.087,7.829,10.824-.264V79.563C508.042,59.228,494.681,45.57,474.8,45.57ZM497.07,79.412c0,14.351-8.74,23.624-22.267,23.624s-22.267-9.273-22.267-23.624c0-14.169,8.74-23.325,22.267-23.325C488.954,56.087,497.07,64.589,497.07,79.412Z" transform="translate(0.011)"/><path class="cls-2" d="M555.154,55.938c4.984.12,11.13,1.094,14.449,7.616l.109.214.145.19a5.268,5.268,0,0,0,.85.884l1.381,1.121,5.486-2.043,2.678-1.761-1.041-2.4C575.08,50.275,567.358,45.767,554.9,45.57c-12.133,0-26.3,5.269-26.3,20.118,0,14.116,14.113,16.776,24.39,18.713l1.413.313c10.39,2.285,14.622,3.741,14.622,9.026,0,8.848-13.148,9.3-15.783,9.3-5.3,0-11.9-2.4-14.705-7.767l-.116-.222-.158-.2a3.662,3.662,0,0,0-2.827-1.56h-2.313l-.232.774-2.135.828-.2.119A3.371,3.371,0,0,0,529,99.04c3.677,10.494,15.434,14.217,24.386,14.217,6.24,0,26.6-1.429,26.6-19.813,0-13.133-14.112-17.233-24.7-19.168l-1.147-.246c-9.8-2.074-14.423-3.558-14.423-8.19C539.719,57.657,548.124,55.939,555.154,55.938Z" transform="translate(0.011)"/><path class="cls-2" d="M628.614,55.938c4.985.12,11.13,1.094,14.448,7.613l.11.217.148.2a5.414,5.414,0,0,0,.846.879l1.381,1.121,5.484-2.042,2.675-1.76-1.036-2.4c-4.13-9.484-11.851-13.992-24.313-14.189-12.132,0-26.3,5.269-26.3,20.118,0,14.116,14.112,16.776,24.388,18.713l1.414.313C638.248,87,642.48,88.457,642.48,93.742c0,8.848-13.145,9.3-15.781,9.3-5.3,0-11.9-2.4-14.7-7.769l-.118-.226-.16-.2a3.653,3.653,0,0,0-2.822-1.554h-2.27l-.243.762-2.167.84-.2.117a3.356,3.356,0,0,0-1.555,4.03c3.676,10.494,15.434,14.217,24.386,14.217,6.241,0,26.6-1.429,26.6-19.813,0-13.133-14.113-17.233-24.7-19.168l-1.147-.246c-9.8-2.074-14.423-3.558-14.423-8.19C613.181,57.657,621.581,55.939,628.614,55.938Z" transform="translate(0.011)"/><path class="cls-2" d="M683.565,21.74a8.02,8.02,0,0,0-8.2,7.836c0,.121,0,.243,0,.364,0,5.634,4.251,8.2,8.2,8.2a8.311,8.311,0,0,0,8.2-8.2,8.021,8.021,0,0,0-7.838-8.2C683.806,21.737,683.686,21.737,683.565,21.74Z" transform="translate(0.011)"/><polygon class="cls-2" points="678.085 47.567 678.209 111.443 686.33 111.443 687.626 110.949 689.064 109.494 688.943 47.305 678.085 47.567"/><path class="cls-2" d="M740.386,55.938c4.985.12,11.131,1.094,14.45,7.616l.107.21.146.192a5.311,5.311,0,0,0,.845.883l1.381,1.125,5.487-2.042,2.681-1.763-1.041-2.4c-4.129-9.484-11.85-13.993-24.313-14.19-12.133,0-26.3,5.269-26.3,20.118,0,14.116,14.113,16.776,24.39,18.713l1.415.313c10.389,2.286,14.62,3.742,14.62,9.026,0,8.848-13.146,9.3-15.781,9.3-5.3,0-11.9-2.4-14.707-7.77l-.119-.227-.159-.2a3.652,3.652,0,0,0-2.821-1.553H718.4l-.244.762-2.167.84-.2.117a3.351,3.351,0,0,0-1.554,4.029c3.675,10.5,15.433,14.218,24.385,14.218,6.24,0,26.6-1.429,26.6-19.813,0-13.133-14.112-17.233-24.7-19.168l-1.149-.246c-9.8-2.073-14.422-3.557-14.422-8.19C724.951,57.657,733.357,55.939,740.386,55.938Z" transform="translate(0.011)"/><polygon class="cls-2" points="811.68 47.381 811.568 21.663 800.726 21.928 800.726 47.401 782.525 47.512 782.83 57.446 800.733 57.446 800.844 111.443 808.962 111.443 810.262 110.948 811.694 109.492 811.694 57.427 829.888 57.311 829.59 47.381 811.68 47.381"/><path class="cls-2" d="M875.888,45.57c-19.57,0-33.239,13.917-33.239,33.842,0,19.609,13.535,33.841,32.183,33.841,9.443,0,17.653-3.378,23.387-9.567l.087,7.833,10.82-.264V79.563C909.126,59.228,895.769,45.57,875.888,45.57Zm22.27,33.842c0,14.351-8.741,23.624-22.27,23.624S853.62,93.763,853.62,79.412c0-14.169,8.741-23.325,22.268-23.325C890.041,56.087,898.158,64.589,898.158,79.412Z" transform="translate(0.011)"/><path class="cls-2" d="M961.564,45.57c-19.114,0-30.525,11.978-30.525,32.044l.126,33.9,10.844-.264V77.6c0-18.853,12.251-21.667,19.555-21.667,5.879,0,19.553,2.112,19.553,21.679l.126,33.83h8.11l1.289-.491,1.445-1.445V77.6C992.087,57.545,980.681,45.57,961.564,45.57Z" transform="translate(0.011)"/><polygon class="cls-2" points="1038.542 47.381 1038.429 21.663 1027.586 21.928 1027.586 47.401 1009.391 47.512 1009.69 57.446 1027.593 57.446 1027.707 111.443 1035.823 111.443 1037.112 110.953 1038.556 109.508 1038.556 57.427 1056.751 57.311 1056.452 47.381 1038.542 47.381"/><path class="cls-2" d="M1078.465,94.288a8.757,8.757,0,0,0-8.952,8.558q0,.2,0,.4a8.965,8.965,0,0,0,8.952,8.955,9.189,9.189,0,0,0,8.953-8.955A8.964,8.964,0,0,0,1078.465,94.288Z" transform="translate(0.011)"/><path class="cls-2" d="M1142.569,45.57c-19.57,0-33.238,13.917-33.238,33.842,0,19.609,13.534,33.841,32.182,33.841,9.44,0,17.649-3.378,23.386-9.566l.089,7.832,10.82-.264V79.563C1175.808,59.228,1162.45,45.57,1142.569,45.57Zm22.268,33.842c0,14.351-8.741,23.624-22.268,23.624S1120.3,93.763,1120.3,79.412c0-14.169,8.74-23.325,22.267-23.325C1156.72,56.087,1164.837,64.589,1164.837,79.412Z" transform="translate(0.011)"/><path class="cls-2" d="M1205.92,21.74a8.019,8.019,0,0,0-8.2,7.834q0,.183,0,.366c0,5.634,4.25,8.2,8.2,8.2a8.311,8.311,0,0,0,8.2-8.2,8.021,8.021,0,0,0-7.838-8.2C1206.161,21.737,1206.041,21.737,1205.92,21.74Z" transform="translate(0.011)"/><polygon class="cls-2" points="1200.444 47.567 1200.568 111.443 1208.686 111.443 1209.975 110.953 1211.422 109.507 1211.299 47.305 1200.444 47.567"/></svg>