<svg xmlns="http://www.w3.org/2000/svg" width="31" height="31" viewBox="0 0 31 31"><defs><style>.a{fill:none;}</style></defs><g transform="translate(0 -0.201)"><rect class="a" width="31" height="31" transform="translate(0 0.201)"/><path d="M12.668,21.107c-.639,0-1.194-.01-1.75,0-.4.01-.742-.087-.878-.5a.762.762,0,0,1,.374-.9q5.571-4.2,11.14-8.4a1.445,1.445,0,0,1,1.886.024q5.554,4.181,11.1,8.37a.763.763,0,0,1,.384.889c-.134.425-.465.519-.868.512-.713-.011-1.426,0-2.2,0v3.806c0,2.8.009,5.6,0,8.4a1.934,1.934,0,0,1-2.021,2.014q-7.582.011-15.164,0a1.927,1.927,0,0,1-2.035-2.1q.011-5.692.039-11.385C12.669,21.612,12.668,21.387,12.668,21.107ZM11.194,20.2c.094.055.121.085.149.085q.655.009,1.31.011c.722,0,.811.088.811.816q.007,5.954.012,11.908c0,1.09.359,1.453,1.435,1.453H29.549c1.1,0,1.459-.369,1.459-1.493V21.124c0-.842.022-.864.847-.865h1.9a1.651,1.651,0,0,0-.144-.177Q28.3,16.07,22.983,12.055a.753.753,0,0,0-1.039.022c-.942.724-1.9,1.435-2.844,2.151Z" transform="translate(-6.88 -7.55)"/><path d="M35.347,59.441c-1.031,0-2.063,0-3.094,0-.358,0-.675-.026-.7-.5,0-.075-.11-.158-.187-.209a.919.919,0,0,0-.25-.075c-1.87-.521-2.395-1.361-2.045-3.274.113-.618.233-1.236.342-1.855a3.9,3.9,0,0,1,4.176-3.37c1.394.04,2.792-.031,4.184.037a3.775,3.775,0,0,1,3.474,3.111q.227,1.236.456,2.473a2.278,2.278,0,0,1-1.692,2.771c-.392.114-.872.094-.972.679-.016.1-.351.138-.539.2a.163.163,0,0,1-.052,0Zm3.793-1.587c1.479-.2,1.919-.79,1.67-2.17-.125-.686-.287-1.37-.382-2.062A3.058,3.058,0,0,0,37.33,51c-1.2.034-2.408-.009-3.612-.016a3.133,3.133,0,0,0-3.507,2.967c-.1.62-.229,1.237-.347,1.855-.239,1.244.346,1.956,1.7,2V54.1c0-.655.074-.734.715-.735q3.07,0,6.139,0c.636,0,.723.09.724.733,0,1.24,0,2.48,0,3.759Zm-.884-3.6H32.443v4.285h5.814Z" transform="translate(-19.928 -34.511)"/><path d="M39.663,30.1a3.05,3.05,0,1,1,3.022,3.247A3.129,3.129,0,0,1,39.663,30.1Zm.855.049a2.2,2.2,0,1,0,2.189-2.4,2.282,2.282,0,0,0-2.189,2.4Z" transform="translate(-27.287 -18.507)"/></g></svg>