<svg id="Layer_1" data-name="Layer 1" xmlns="http://www.w3.org/2000/svg" viewBox="0 0 24 24"><defs><style>.cls-1{fill:none;}.cls-2{fill:#424242;}</style></defs><rect class="cls-1" width="24" height="24"/><path class="cls-2" d="M4.452,10.428c-.491,0-.918-.008-1.345,0-.311.008-.571-.067-.676-.386a.587.587,0,0,1,.288-.689Q7,6.127,11.288,2.894a1.111,1.111,0,0,1,1.45.018q4.272,3.216,8.538,6.439a.587.587,0,0,1,.3.683c-.1.327-.358.4-.668.394-.548-.008-1.1,0-1.693,0v2.928c0,2.153.007,4.305,0,6.458a1.486,1.486,0,0,1-1.423,1.549q-.066,0-.132,0-5.832.009-11.664,0a1.483,1.483,0,0,1-1.565-1.616q.009-4.379.03-8.757C4.453,10.817,4.452,10.644,4.452,10.428Zm-1.134-.7c.072.043.093.066.114.066q.5.007,1.008.008c.556,0,.624.068.624.628q.006,4.58.01,9.16c0,.839.276,1.118,1.1,1.118H17.437c.845,0,1.122-.284,1.122-1.149V10.441c0-.648.017-.664.652-.665h1.464a1.433,1.433,0,0,0-.111-.136q-4.089-3.086-8.177-6.175a.58.58,0,0,0-.8.017c-.725.557-1.458,1.1-2.188,1.654Z"/><path class="cls-2" d="M11.861,19.176c-.794,0-1.587,0-2.381,0-.275,0-.519-.02-.541-.383,0-.057-.085-.121-.144-.16a.687.687,0,0,0-.192-.058c-1.439-.4-1.842-1.047-1.573-2.518.087-.476.179-.95.263-1.426a3,3,0,0,1,3.212-2.592c1.072.03,2.148-.024,3.218.028A2.9,2.9,0,0,1,16.4,14.462q.176.951.351,1.9a1.751,1.751,0,0,1-1.274,2.125l-.028.007c-.3.088-.67.072-.747.522-.013.074-.27.106-.415.156a.134.134,0,0,1-.04,0Zm2.917-1.221c1.138-.154,1.476-.608,1.285-1.67-.1-.528-.221-1.053-.294-1.585a2.35,2.35,0,0,0-2.383-2.016c-.926.026-1.853-.008-2.779-.013a2.41,2.41,0,0,0-2.7,2.283c-.08.477-.176.952-.267,1.427-.184.957.266,1.5,1.305,1.541V15.065c0-.5.057-.565.55-.566q2.361,0,4.722,0c.49,0,.556.069.557.563,0,.954,0,1.908,0,2.892Zm-.68-2.766H9.626v3.3H14.1Z"/><path class="cls-2" d="M9.52,8.918a2.407,2.407,0,0,1,2.351-2.462h.007a2.418,2.418,0,0,1,2.326,2.5,2.419,2.419,0,0,1-2.36,2.464A2.416,2.416,0,0,1,9.52,8.918Zm.657.037a1.755,1.755,0,0,0,1.687,1.8,1.772,1.772,0,0,0,1.688-1.841,1.77,1.77,0,0,0-1.691-1.8,1.763,1.763,0,0,0-1.685,1.844Z"/></svg>