<svg id="Layer_1" data-name="Layer 1" xmlns="http://www.w3.org/2000/svg" viewBox="0 0 400 150.1"><defs><style>.cls-1{opacity:0.5;}.cls-2{fill:#424242;}</style></defs><g class="cls-1"><path class="cls-2" d="M586.649,276.491c3.85-3.553,6.753-6.009,9.4-8.712,19.443-19.838,22.791-46.211,8.683-68.34a72.832,72.832,0,0,0-25.5-24.013C552.627,160.08,524.1,156.591,494.3,162.7c-21.68,4.443-40.767,13.852-54.9,31.488-16.773,20.931-16.581,47.359.175,68.3a80.166,80.166,0,0,0,28.553,22.306c26.631,12.7,54.366,14.673,82.811,7.645,4.747-1.173,8.4-.987,12.72,1.89,14.332,9.537,30.318,14.554,47.834,15.627-4.87-5.385-9.927-10.2-14.024-15.726S590.233,282.462,586.649,276.491ZM517.49,249.964a5.06,5.06,0,0,1-5.045,5.046H465.653a5.061,5.061,0,0,1-5.046-5.046h0a5.06,5.06,0,0,1,5.046-5.045h46.792a5.06,5.06,0,0,1,5.045,5.045ZM547.2,234.9h-81.55a5.046,5.046,0,1,1,0-10.091H547.2a5.046,5.046,0,0,1,0,10.091Zm32.479-25.153a5.06,5.06,0,0,1-5.046,5.045H465.653a5.06,5.06,0,0,1-5.046-5.045h0a5.06,5.06,0,0,1,5.046-5.045H574.636a5.06,5.06,0,0,1,5.046,5.045Z" transform="translate(-426.91 -159.852)"/></g><g class="cls-1"><path class="cls-2" d="M814.423,194.186c-14.133-17.636-33.22-27.045-54.9-31.488-29.8-6.107-58.33-2.618-84.939,12.728a72.835,72.835,0,0,0-25.5,24.013c-14.108,22.129-10.76,48.5,8.684,68.34,2.65,2.7,5.552,5.159,9.4,8.712-3.584,5.971-6.72,12.209-10.816,17.735s-9.155,10.341-14.025,15.726c17.516-1.073,33.5-6.09,47.835-15.627,4.323-2.877,7.973-3.063,12.72-1.89,28.444,7.028,56.18,5.054,82.81-7.645a80.148,80.148,0,0,0,28.553-22.306C831,241.545,831.2,215.117,814.423,194.186Zm-20.439,60.787c-.043,6.231-2.329,7.54-7.767,4.706-8.277-4.314-16.491-8.749-25.3-13.435-.735,13.737-2.437,15.3-15.658,15.306q-28.164,0-56.327-.009c-9.24-.017-12.32-3.036-12.356-12.134-.051-13.186-.071-26.372.007-39.557.05-8.423,3.164-11.6,11.613-11.643,18.575-.1,37.152-.034,55.727-.034,14.777,0,15.416.541,17.3,15.1,8.377-4.465,16.572-8.9,24.829-13.212,5.482-2.863,7.888-1.559,7.933,4.567Q794.17,229.8,793.984,254.973Z" transform="translate(-426.91 -159.852)"/></g></svg>