<svg xmlns="http://www.w3.org/2000/svg" width="37" height="37" viewBox="0 0 37 37"><defs><style>.a{fill:none;}.b{fill:#424242;}</style></defs><rect class="a" width="37" height="37"/><path class="b" d="M20.832,47.982l.114-1.336L24.5,49.074l-3.882,1.869.085-1.343c-.717-.138-1.415-.258-2.107-.408a21.917,21.917,0,0,1-6.113-2.111,6.214,6.214,0,0,1-1.857-1.469,2.258,2.258,0,0,1,.168-3.3,6.5,6.5,0,0,1,2.532-1.506c1.05-.361,2.131-.633,3.2-.942a1.026,1.026,0,0,1,.2,0c-.537.175-1.006.318-1.468.481a11.737,11.737,0,0,0-3.077,1.49,5.842,5.842,0,0,0-1.16,1.1,1.475,1.475,0,0,0,.105,2.053A5.054,5.054,0,0,0,12.8,46.174a17.762,17.762,0,0,0,4.788,1.408c.884.15,1.776.246,2.665.361C20.44,47.967,20.624,47.968,20.832,47.982Z" transform="translate(-6.315 -25.182)"/><path class="b" d="M51.31,50.3v-1.92c.777,0,1.58.032,2.379-.006A26.547,26.547,0,0,0,61.579,47a13.348,13.348,0,0,0,2.127-1.048,3.362,3.362,0,0,0,.9-.839,1.4,1.4,0,0,0,.082-1.757,5.421,5.421,0,0,0-1.09-1.161,11.577,11.577,0,0,0-3.388-1.69,1.257,1.257,0,0,1-.391-.193c.242.064.485.125.727.192a11.778,11.778,0,0,1,3.087,1.243,6.428,6.428,0,0,1,1.213.946,2.229,2.229,0,0,1,.188,3.086,5.86,5.86,0,0,1-1.8,1.529,18.377,18.377,0,0,1-4.7,1.845,39.251,39.251,0,0,1-6.763,1.12C51.623,50.286,51.49,50.289,51.31,50.3Z" transform="translate(-32.413 -25.466)"/><path class="b" d="M71.861,32.11A1.029,1.029,0,1,1,72.9,31.074,1.04,1.04,0,0,1,71.861,32.11Zm.024-.568a.463.463,0,0,0,.442-.492.459.459,0,1,0-.441.492Z" transform="translate(-44.755 -18.985)"/><path class="b" d="M27.517,41.017a3.462,3.462,0,0,0,1.592.475c.833,0,1.254-.451,1.254-1.031,0-.76-.675-1.1-1.381-1.1h-.654V38.062h.622c.537-.012,1.223-.237,1.223-.89,0-.463-.337-.807-1.012-.807a2.875,2.875,0,0,0-1.433.463L27.4,35.523a3.92,3.92,0,0,1,2.118-.582A2,2,0,0,1,31.8,36.864a1.825,1.825,0,0,1-1.254,1.792v.024a1.85,1.85,0,0,1,1.486,1.875c0,1.365-1.065,2.362-2.8,2.362a3.7,3.7,0,0,1-2.034-.546Z" transform="translate(-17.176 -22.073)"/><path class="b" d="M47.342,36.382a3.943,3.943,0,0,0-.622.024,2.26,2.26,0,0,0-2.234,1.851h.033a1.817,1.817,0,0,1,1.454-.617,2.23,2.23,0,0,1,2.119,2.516,2.618,2.618,0,0,1-2.53,2.789c-1.823,0-2.719-1.531-2.719-3.371a4.935,4.935,0,0,1,1.212-3.43A3.861,3.861,0,0,1,46.7,35.005a4.062,4.062,0,0,1,.643-.012Zm-.875,3.867c0-.712-.337-1.329-1.022-1.329a1.048,1.048,0,0,0-.949.688,1.163,1.163,0,0,0-.063.451c.032.819.379,1.555,1.1,1.555.571,0,.929-.58.929-1.363Z" transform="translate(-27.062 -22.101)"/><path class="b" d="M63.951,38.891c0,2.385-.854,4.023-2.6,4.023-1.771,0-2.551-1.792-2.561-3.977,0-2.231.843-4,2.615-4C63.234,34.939,63.951,36.778,63.951,38.891Zm-3.552.048c-.011,1.768.368,2.611.991,2.611s.958-.878.958-2.635c0-1.709-.327-2.611-.97-2.611-.589,0-.989.843-.979,2.634Z" transform="translate(-37.136 -22.07)"/></svg>