<svg id="Layer_1" data-name="Layer 1" xmlns="http://www.w3.org/2000/svg" viewBox="0 0 24 24"><defs><style>.cls-1{fill:none;}.cls-2{fill:#424242;}</style></defs><rect class="cls-1" width="24" height="24"/><path class="cls-2" d="M4.816,13.246c-.557,0-1.071-.014-1.584,0a.732.732,0,0,1-.754-.465.731.731,0,0,1,.162-.876c.262-.255.552-.482.821-.729q4.095-3.76,8.188-7.524c.321-.3.375-.3.691-.009.731.666,1.461,1.335,2.256,2.062,0-.372,0-.672,0-.973,0-.368.069-.437.434-.438q1.488,0,2.973,0c.38,0,.442.067.442.461,0,1.368.007,2.736-.006,4.1a.76.76,0,0,0,.286.636c.859.764,1.7,1.545,2.549,2.324a.77.77,0,0,1,.113,1.152,1.155,1.155,0,0,1-.651.274c-.5.04-1.006.012-1.552.012v6.767c0,.48-.056.537-.522.537H5.339c-.467,0-.522-.057-.523-.536V13.246Zm.589,6.712H18.594v-2.45q0-2.2,0-4.4c0-.271.066-.431.386-.42.533.019,1.066.014,1.6,0a1.531,1.531,0,0,0,.4-.128,1.207,1.207,0,0,0-.184-.363q-1.335-1.246-2.693-2.47a.686.686,0,0,1-.243-.57c.008-1.309,0-2.618,0-3.927V4.91H15.179c0,.474.013.92-.009,1.365a.481.481,0,0,1-.185.354c-.079.044-.253-.037-.361-.1a2.275,2.275,0,0,1-.333-.295L12,4.14c-.089.078-.163.141-.235.207L3.921,11.5c-.278.254-.551.513-.813.783-.177.182-.12.348.125.4a1.1,1.1,0,0,0,.236.014c.533,0,1.067,0,1.6.006.224,0,.316.12.316.339,0,.347.02.694.02,1.041q0,2.766,0,5.534Z"/></svg>