<svg xmlns="http://www.w3.org/2000/svg" width="23.453" height="23.453" viewBox="0 0 23.453 23.453">
  <path id="Path_347" data-name="Path 347" d="M23.06,23.1l-1.981-1.9V14.9a.708.708,0,0,0-.69-.726H15.619a.708.708,0,0,0-.69.726v.4l-2.393-2.294a1.154,1.154,0,0,0-1.62,0L.394,23.1a1.3,1.3,0,0,0-.311,1.392A1.2,1.2,0,0,0,1.2,25.3H2.885V35.4a.708.708,0,0,0,.69.726H9.342a.708.708,0,0,0,.69-.726V29.266h3.39V35.4a.708.708,0,0,0,.69.726h5.768a.708.708,0,0,0,.69-.726V25.3H22.25a1.2,1.2,0,0,0,1.122-.808A1.3,1.3,0,0,0,23.06,23.1Zm-3.181.749a.708.708,0,0,0-.69.726V34.678H14.8V28.541a.708.708,0,0,0-.69-.726H9.342a.708.708,0,0,0-.69.726v6.137H4.264V24.57a.708.708,0,0,0-.69-.726H1.66l10.066-9.65,3.428,3.286a.664.664,0,0,0,.743.127.728.728,0,0,0,.411-.664V15.624H19.7v5.893a.743.743,0,0,0,.225.536l1.869,1.792Z" transform="translate(0 -12.676)" fill="#424242"/>
</svg>
