<svg id="Layer_1" data-name="Layer 1" xmlns="http://www.w3.org/2000/svg" viewBox="0 0 24 24"><defs><style>.cls-1{fill:none;}.cls-2{fill:#424242;}</style></defs><rect class="cls-1" width="24" height="24"/><path class="cls-2" d="M21.409,11.667l-.592-.544c-.65-.6-1.3-1.195-1.967-1.788a.563.563,0,0,1-.21-.478c.008-1.011.007-2.024.006-3.038V4.755c0-.506-.151-.661-.643-.661H15.029c-.473,0-.633.162-.633.638v.519L12.476,3.5A.751.751,0,0,0,12,3.226c-.174,0-.306.11-.485.279L3.326,11.028c-.112.1-.228.2-.344.3-.163.14-.327.281-.476.426a.925.925,0,0,0-.214,1.1.957.957,0,0,0,.935.592s.349-.006.52-.006l.869.005v6.576c0,.591.143.736.723.736H18.662c.58,0,.722-.145.722-.737V13.455l.725.008c.217,0,.431,0,.645-.023a1.348,1.348,0,0,0,.777-.335l.081-.1A.963.963,0,0,0,21.409,11.667Zm-3.015,1.441v6.65H5.605V14.083c0-.175-.005-.351-.01-.526s-.01-.343-.01-.515a.484.484,0,0,0-.514-.539C4.538,12.5,4,12.5,3.469,12.5l-.052,0a.2.2,0,0,1-.166-.076c.26-.268.53-.524.805-.775L12,4.409,14.145,6.37a2.472,2.472,0,0,0,.378.332.9.9,0,0,0,.406.139l.126-.012.053-.042a.685.685,0,0,0,.262-.5c.016-.325.014-.651.011-.988V5.11h2.28l0,1.43c0,.872,0,1.744,0,2.6a.881.881,0,0,0,.308.731c.9.816,1.8,1.638,2.666,2.441a.973.973,0,0,1,.084.134,1.3,1.3,0,0,1-.144.038c-.285.008-.57.013-.855.013-.244,0-.489,0-.772-.013A.529.529,0,0,0,18.394,13.108Z"/></svg>