<svg id="Layer_1" data-name="Layer 1" xmlns="http://www.w3.org/2000/svg" viewBox="0 0 24 24"><defs><style>.cls-1{fill:none;}.cls-2{fill:#fff;}</style></defs><rect class="cls-1" width="24" height="24"/><path class="cls-2" d="M5.569,7.964v8.084H4.094V7.964Z"/><path class="cls-2" d="M13.055,15.808a5.119,5.119,0,0,1-2.087.36,3.814,3.814,0,0,1-4.122-3.479,3.861,3.861,0,0,1,0-.589,4.065,4.065,0,0,1,3.846-4.273,4.112,4.112,0,0,1,.471,0,4.64,4.64,0,0,1,1.967.36L12.8,9.367a3.91,3.91,0,0,0-1.583-.312A2.693,2.693,0,0,0,8.389,12.03a2.652,2.652,0,0,0,2.819,2.914,4.128,4.128,0,0,0,1.606-.3Z"/><path class="cls-2" d="M16.1,9.2H13.8V7.964h6.1V9.2H17.58v6.849H16.1Z"/></svg>