<svg xmlns="http://www.w3.org/2000/svg" width="45" height="45" viewBox="0 0 45 45"><defs><style>.a{fill:none;}.b{fill:#424242;}</style></defs><rect class="a" width="45" height="45"/><path class="b" d="M12.524,43.963v1.157c0,.471.013.944-.015,1.414a1.251,1.251,0,0,1-1.274,1.194A1.27,1.27,0,0,1,10,46.442V26.835a1.27,1.27,0,0,1,1.249-1.316,1.255,1.255,0,0,1,1.262,1.3q0,5.48,0,10.96c0,1.205,0,2.411,0,3.616,0,.208.072.246.26.246q4.583-.008,9.165,0H41.042c.749,0,1.5-.007,2.246,0,.207,0,.265-.058.264-.265-.007-2.852,0-5.7-.008-8.557a1.428,1.428,0,0,1,.712-1.358A1.37,1.37,0,0,1,46.3,32.673c0,1.8,0,3.594,0,5.39q0,4.133,0,8.265a1.32,1.32,0,0,1-.765,1.252,1.369,1.369,0,0,1-1.971-1.164c-.016-.733-.014-1.467-.005-2.2,0-.19-.039-.258-.246-.258q-11.308.009-22.616,0H12.524Z" transform="translate(-5.462 -13.94)"/><path class="b" d="M36.85,47.488c0-.091-.01-.162-.01-.235,0-1.316-.013-2.635,0-3.952a2.254,2.254,0,0,1,1.265-2.14,2.062,2.062,0,0,1,.883-.2q7.276-.019,14.551-.007a2.211,2.211,0,0,1,2.151,2.3c.007,1.235,0,2.47,0,3.705v.535Z" transform="translate(-20.122 -22.366)"/><path class="b" d="M22.495,47.511a3.281,3.281,0,1,1,3.211-3.3,3.243,3.243,0,0,1-3.211,3.3Z" transform="translate(-10.457 -22.369)"/></svg>