<svg id="Layer_1" data-name="Layer 1" xmlns="http://www.w3.org/2000/svg" viewBox="0 0 100 100"><defs><style>.cls-1{fill:none;}.cls-2{fill:#fff;}</style></defs><rect class="cls-1" width="100" height="100"/><path class="cls-2" d="M28.047,50.355c3.736,0,7.534.033,11.331-.008a14.374,14.374,0,0,1,11.867,5.694A4.8,4.8,0,0,0,54.3,57.524c2.637.212,5.3.051,7.956.079,4.548.048,6,1.1,7.594,5.64,4.277-1.969,8.509-3.986,12.8-5.873,4.015-1.766,8.064,1.09,7.242,5.251a6.325,6.325,0,0,1-2.739,3.825c-9.01,5.1-18.12,10.036-27.253,14.912a10.779,10.779,0,0,1-8.928.348c-6.8-2.365-13.64-4.64-20.465-6.946-.776-.262-1.565-.483-2.551-.785-.086,2.812-1.814,3.136-4.051,3.06-3.728-.125-7.463-.077-11.194-.019-1.861.028-2.72-.654-2.707-2.618.054-8.376.041-16.752.008-25.127-.006-1.634.552-2.467,2.3-2.447,4.311.049,8.624-.019,12.936.029C27.289,46.875,27.308,46.969,28.047,50.355Zm-.347,3.3c0,5.1.067,9.893-.037,14.685a2.475,2.475,0,0,0,2.01,2.831c7.466,2.454,14.9,5,22.341,7.536a8.83,8.83,0,0,0,7.419-.655q12.643-6.9,25.305-13.773c1.293-.7,2.679-1.475,1.894-3.2-.849-1.869-2.351-1.006-3.614-.425-5.19,2.383-10.338,4.861-15.558,7.176a12.275,12.275,0,0,1-4.513,1.112c-5.133.136-10.273.062-15.41.044-1.115,0-2.438.3-2.474-1.556-.036-1.829,1.218-1.636,2.38-1.636H63.1c1.784,0,3.215-.526,3.181-2.591-.033-1.987-1.531-2.33-3.144-2.337-3.563-.016-7.126-.055-10.688,0a3.019,3.019,0,0,1-3.139-1.816,9.213,9.213,0,0,0-7.628-5.316c-4.519-.308-9.076-.077-13.985-.077Zm-3.342,20V50.018c-3.073,0-6.024.085-8.967-.032-1.8-.071-2.232.675-2.211,2.329.072,5.786.026,11.573.025,17.359v3.984Z"/><path class="cls-2" d="M80.96,34.113a4.644,4.644,0,0,0,0-1.054.879.879,0,0,0,0-.461,4.653,4.653,0,0,0,0-1.055.853.853,0,0,0,0-.454,1.407,1.407,0,0,0-.177-.982.56.56,0,0,0-.215-.332,1.014,1.014,0,0,0-.535-.429.355.355,0,0,0-.237-.109,2.819,2.819,0,0,0-1.208-.091.3.3,0,0,1-.021.06.483.483,0,0,1-.062.105.483.483,0,0,0,.062-.105.3.3,0,0,0,.021-.06H75.557a.448.448,0,0,1-.049.115.448.448,0,0,0,.049-.115H72.526a.527.527,0,0,1-.019.056.527.527,0,0,0,.019-.056H69.5l-.15-.026-.02-1.138V27.6a.475.475,0,0,0-.216.116.475.475,0,0,1,.216-.116V20.027a2.766,2.766,0,0,0-.067-1.06.356.356,0,0,0-.068-.38,1.2,1.2,0,0,0-.526-.7.294.294,0,0,0-.307-.139c-.254-.283-.588-.237-.914-.22a.756.756,0,0,0-.378,0c-1.967,0-3.934-.026-5.9,0a1.605,1.605,0,0,0-1.517,1.6c-.018,1.942,0,3.884,0,5.826v3.411c-.011.238.064.54-.055.7-.144.191-.473.023-.715.085h-6.06a.408.408,0,0,1-.059.129.408.408,0,0,0,.059-.129H49.792A1.666,1.666,0,0,0,48.02,30.7a1.567,1.567,0,0,0,0,.247,4.78,4.78,0,0,0,0,1.056.938.938,0,0,0,0,.459,4.905,4.905,0,0,0,0,1.056.942.942,0,0,0,0,.46,4.905,4.905,0,0,0,0,1.056.938.938,0,0,0,0,.459,4.905,4.905,0,0,0,0,1.056.942.942,0,0,0,0,.46,1.324,1.324,0,0,0,.188.906.546.546,0,0,0,.213.312,1.258,1.258,0,0,0,.674.487.768.768,0,0,0,.392.1,6.254,6.254,0,0,0,1.06.006h1.515a.445.445,0,0,1,.043-.119.445.445,0,0,0-.043.119H55.1a.433.433,0,0,1,.075-.17.433.433,0,0,0-.075.17h3.41l1.131.021.019.137v9.093a4.01,4.01,0,0,0,.034,1.072c.027.1.024.212.109.292a1.178,1.178,0,0,0,.527.681.5.5,0,0,0,.288.181,1.587,1.587,0,0,0,1,.172h6.058a1.668,1.668,0,0,0,1.655-1.641v-9.1c.013-.285-.078-.656.067-.831.172-.206.564-.025.855-.085h9.093a1.631,1.631,0,0,0,1.615-1.647v-.02a4.644,4.644,0,0,0,0-1.054.883.883,0,0,0,0-.462,4.644,4.644,0,0,0,0-1.054A.876.876,0,0,0,80.96,34.113Zm-8.545-4.77a.988.988,0,0,1-.078.081A.988.988,0,0,0,72.415,29.343Z"/></svg>