<svg id="Layer_1" data-name="Layer 1" xmlns="http://www.w3.org/2000/svg" viewBox="0 0 24 24"><defs><style>.cls-1{fill:#424242;}.cls-2{fill:none;}</style></defs><g id="remote"><path id="Path_628" data-name="Path 628" class="cls-1" d="M10.33,12.032l.7.878a1.682,1.682,0,0,1,2.106,0l.7-.878A2.809,2.809,0,0,0,10.33,12.032Z"/><path id="Path_629" data-name="Path 629" class="cls-1" d="M11.525,13.664H12.65V14.79H11.525Z"/><path id="Path_630" data-name="Path 630" class="cls-1" d="M7.518,8.52l.7.877a6.383,6.383,0,0,1,7.731,0l.7-.877A7.482,7.482,0,0,0,7.518,8.52Z"/><path id="Path_631" data-name="Path 631" class="cls-1" d="M8.925,10.276l.7.878a3.923,3.923,0,0,1,4.916,0l.7-.879A5.057,5.057,0,0,0,8.925,10.276Z"/><path id="Path_632" data-name="Path 632" class="cls-1" d="M2.488,18.2H10.3a1.691,1.691,0,0,1-1.592,1.126H8.15v1.125h7.875V19.327h-.562A1.691,1.691,0,0,1,13.872,18.2h7.816V3.576H2.488Zm10.726,1.126H10.96a2.809,2.809,0,0,0,.506-1.126h1.239a2.825,2.825,0,0,0,.507,1.126ZM3.614,4.7H20.56V17.077H3.613Z"/></g><rect class="cls-2" width="24" height="24"/></svg>