<svg xmlns="http://www.w3.org/2000/svg" xmlns:xlink="http://www.w3.org/1999/xlink" width="58.983" height="58.983" viewBox="0 0 58.983 58.983">
  <defs>
    <rect id="rect-3" width="32" height="32" x="13.65" y="13.838"/>
    <mask id="mask-4" maskContentUnits="userSpaceOnUse" maskUnits="userSpaceOnUse">
      <rect width="58.983" height="58.983" x="0" y="0" fill="black"/>
      <use fill="white" xlink:href="#rect-3"/>
    </mask>
  </defs>
  <g>
    <path fill="rgb(114,114,114)" fill-rule="evenodd" d="M29.49169731 0c16.287817 0 29.49169731 13.20388317 29.49169731 29.49169731 0 16.287817-13.2038803 29.49169731-29.4916973 29.49169731C13.20388316 58.98339462 0 45.77951432 0 29.49169732 0 13.20388316 13.20388317 0 29.49169731 0z"/>
    <g>
      <path fill="none" d="M8.675 8.675h42.19768524v42.19768524H8.675V8.675z"/>
      <g>
        <use fill="none" xlink:href="#rect-3"/>
        <g mask="url(#mask-4)">
          <g>
            <path fill="none" d="M13.65 13.838h32v32h-32v-32z"/>
            <path fill="none" d="M13.65 13.838h32v32h-32v-32z"/>
          </g>
          <path fill="rgb(255,255,255)" fill-rule="evenodd" d="M16.31662598 18.19803027l1.69335937-1.69335937L41.65 40.14468555l-1.69335937 1.69329834-4.2532959-4.23999024c-.20007325.13336182-.44006348.23999024-.72009278.23999024h-16c-.73327636 0-1.33325195-.59997559-1.33325195-1.333313V23.17135792c0-.7333374.59997559-1.33337402 1.33325195-1.33337402h.97338868l-3.64001465-3.63995362zm20.00012207 9.63995362L41.65 22.50467089v14.23999024L26.74338379 21.8379839h8.23999023c.73339844 0 1.33337403.59997558 1.33337403 1.33331298v4.66668702z"/>
        </g>
      </g>
    </g>
  </g>
</svg>
