<svg xmlns="http://www.w3.org/2000/svg" xmlns:xlink="http://www.w3.org/1999/xlink" width="58.983" height="58.983" viewBox="0 0 58.983 58.983">
  <defs>
    <rect id="rect-2" width="38" height="38" x="9.892" y="11.071"/>
    <mask id="mask-3" maskContentUnits="userSpaceOnUse" maskUnits="userSpaceOnUse">
      <rect width="58.983" height="58.983" x="0" y="0" fill="black"/>
      <use fill="white" xlink:href="#rect-2"/>
    </mask>
  </defs>
  <g>
    <path fill="rgb(114,114,114)" fill-rule="evenodd" d="M29.49169731 0c16.287817 0 29.49169731 13.20388317 29.49169731 29.49169731 0 16.287817-13.2038803 29.49169731-29.4916973 29.49169731C13.20388316 58.98339462 0 45.77951432 0 29.49169732 0 13.20388316 13.20388317 0 29.49169731 0z"/>
    <g>
      <use fill="none" xlink:href="#rect-2"/>
      <g mask="url(#mask-3)">
        <g>
          <path fill="none" d="M9.892 11.071h38v38h-38v-38z"/>
          <path fill="none" d="M9.892 11.071h38v38h-38v-38z"/>
        </g>
        <path fill="rgb(255,255,255)" fill-rule="evenodd" d="M33.86038379 29.59014893c0-.0949707.03161621-.17419434.03161621-.26916504v-9.5c0-2.62835694-2.1217041-4.75-4.75-4.75s-4.75 2.12164306-4.75 4.75v.28497314l9.46838379 9.4841919zM14.892 18.66516113l2.01086426-2.01080322L43.392 43.14355469l-2.01086426 2.01080322-6.63415527-6.61834717c-1.21911621.71252442-2.58081055 1.21917725-4.02160645 1.4249878v5.19335937h-3.16674804v-5.19335937c-5.1932373-.77581788-9.5-5.2407837-9.5-10.63995362h2.69165039c0 4.75 4.02172851 8.07495117 8.39172363 8.07495117 1.2824707 0 2.5333252-.30078125 3.6574707-.82330322l-2.6282959-2.62835693c-.33251953.0791626-.68078613.12670898-1.0291748.12670898-2.6282959 0-4.73413086-2.1217041-4.73413086-4.75v-1.14001465L14.892 18.66516113zM40.22537402 29.3209839h-2.69177246c0 1.1716919-.2532959 2.26416015-.68078613 3.2458496l1.94750977 1.94750977c.88659667-1.55169678 1.42504882-3.3092041 1.42504882-5.19335937z"/>
      </g>
    </g>
  </g>
</svg>
