<svg xmlns="http://www.w3.org/2000/svg" width="44" height="44" viewBox="0 0 44 44"><defs><style>.a{fill:none;}.b{fill:#424242;}</style></defs><g transform="translate(0 0.051)"><rect class="a" width="44" height="44" transform="translate(0 -0.051)"/><path class="b" d="M45,10a13.563,13.563,0,0,1,1.564.357,6.472,6.472,0,0,1,4.586,5.507,7.613,7.613,0,0,1-.733,4.206,8.836,8.836,0,0,1-3.037,3.817,4.946,4.946,0,0,1-6.22-.259,9.3,9.3,0,0,1-3.418-6.29,6.619,6.619,0,0,1,5.794-7.261c.123-.015.244-.05.365-.076Z" transform="translate(-21.131 -5.616)"/><path class="b" d="M28.146,43.905c-.214.231-.365.4-.519.561a58.709,58.709,0,0,0-7.266,9.372,10.842,10.842,0,0,0-1.706,4.375,4.235,4.235,0,0,0,.865,3.485,3.341,3.341,0,0,0,2.218,1.107,5.847,5.847,0,0,0,.686.026l17.139,0a4.058,4.058,0,0,0,1.285-7.957.725.725,0,0,1-.571-.583q-1.093-4.088-2.2-8.177c-.192-.716-.37-1.436-.563-2.191a4.817,4.817,0,0,1,2.134.274A6.272,6.272,0,0,1,42.8,46.992a16.853,16.853,0,0,1,2.058,5.571c.36,1.768.69,3.546.937,5.333a11.166,11.166,0,0,1-.109,4.132,4.775,4.775,0,0,1-.323.936,1.919,1.919,0,0,1-1.89,1.166q-11.728.007-23.458.038a3.55,3.55,0,0,1-3.479-2.6,7.633,7.633,0,0,1,.2-4.621,16.837,16.837,0,0,1,2.092-4.3c1.4-2.105,2.789-4.22,4.243-6.286a9.639,9.639,0,0,1,1.647-1.684,3.326,3.326,0,0,1,2.225-.77Z" transform="translate(-9.118 -24.615)"/><path class="b" d="M53.279,50.626c.109.185.22.37.325.556q2.374,4.156,4.743,8.318a.578.578,0,0,0,.619.347,3.033,3.033,0,0,1,2.336.686,2.717,2.717,0,0,1,.741,2.884,2.586,2.586,0,0,1-2.271,1.771c-1.223.048-2.449.028-3.673.047-.22,0-.257-.1-.29-.285q-.669-3.713-1.351-7.424-.605-3.324-1.208-6.648c-.014-.078-.022-.157-.033-.235Z" transform="translate(-29.822 -28.382)"/></g></svg>