<svg id="Layer_1" data-name="Layer 1" xmlns="http://www.w3.org/2000/svg" viewBox="0 0 24 24"><defs><style>.cls-1{fill:none;}.cls-2{fill:#fff;}</style></defs><rect class="cls-1" width="24" height="24"/><path class="cls-2" d="M12,10A4,4,0,1,0,8,6,4,4,0,0,0,12,10Zm0-6a2,2,0,1,1-2,2A2.006,2.006,0,0,1,12,4Zm6.39,8.56a13.867,13.867,0,0,0-12.78,0A2.971,2.971,0,0,0,4,15.22V22H6V15.22a.971.971,0,0,1,.52-.88A12.108,12.108,0,0,1,12,13a11.009,11.009,0,0,1,2.13.2l-1.55,3.3H9.75a2.75,2.75,0,0,0,0,5.5H18a2.006,2.006,0,0,0,2-2V15.22A2.971,2.971,0,0,0,18.39,12.56ZM10.94,20H9.75a.75.75,0,0,1,0-1.5h1.89ZM18,20H13.15l2.94-6.27a12.926,12.926,0,0,1,1.4.61.981.981,0,0,1,.51.88Z"/></svg>