<svg xmlns="http://www.w3.org/2000/svg" width="26" height="26" viewBox="0 0 26 26"><defs><style>.a{fill:none;}.b{fill:#424242;}</style></defs><rect class="a" width="26" height="26"/><path class="b" d="M30.851,54.326,30.62,52.5a2.014,2.014,0,0,0-.026-.2h0c-.009-.048-.018-.1-.026-.142A3.812,3.812,0,0,0,29.3,50.075a11.652,11.652,0,0,0-3.461-2.041c-.493-.2-.807-.023-1.038.447-1,2.027-3.04,2.945-5.051,1.546a5.479,5.479,0,1,0,1.017,1.9l.693.048A4.813,4.813,0,0,0,25.8,49.4a7.428,7.428,0,0,1,3.471,2.683l.38,2.887c-.018.855-.008,1.711-.008,2.629H20.074c-.43,0-.752.122-.785.608-.028.42.254.654.785.66.646.007,1.293,0,1.939,0q4.067,0,8.135,0c.4,0,.811-.085.813-.513C30.971,57.013,30.9,55.669,30.851,54.326ZM15.514,49.354a4.161,4.161,0,0,1,3.771,2.412,4.093,4.093,0,0,1,.251.7,4.157,4.157,0,1,1-4.023-3.109Z" transform="translate(-7.412 -35.404)"/><path class="b" d="M40.012,21.818a.579.579,0,0,0,.843-.216.6.6,0,0,0-.218-.885c-.522-.349-1.067-.667-1.566-1.047a6.6,6.6,0,0,1-2.7-3.958,3.917,3.917,0,0,1,1.451-3.92,4.273,4.273,0,0,1,4.352-.04,3.763,3.763,0,0,1,1.548,3.818,4.427,4.427,0,0,1-2.486,3.372c-.478.24-.652.642-.415.987.268.391.628.343,1,.153a5.718,5.718,0,0,0,3.243-5.145,4.726,4.726,0,0,0-2.631-4.492,5.11,5.11,0,0,0-5.508.441,4.806,4.806,0,0,0-1.806,4.994C35.632,18.751,37.619,20.47,40.012,21.818Z" transform="translate(-25.855 -7.271)"/><path class="b" d="M20.734,61.668h1.544v1.544a.691.691,0,0,0,.689.689h0a.691.691,0,0,0,.689-.689V61.668H25.2a.689.689,0,1,0,0-1.378H23.656V58.746a.691.691,0,0,0-.689-.689h0a.691.691,0,0,0-.689.689V60.29H20.734a.689.689,0,1,0,0,1.378Z" transform="translate(-14.799 -42.864)"/></svg>