<svg xmlns="http://www.w3.org/2000/svg" width="23" height="20.215" viewBox="0 0 23 20.215"><defs><style>.a{fill:#424242;}</style></defs><g transform="translate(0 -31)"><path class="a" d="M209.149,240.749l.843,1.052a2.015,2.015,0,0,1,2.523,0l.843-1.052A3.367,3.367,0,0,0,209.149,240.749Z" transform="translate(-199.754 -199.621)"/><path class="a" d="M241,300h1.348v1.348H241Z" transform="translate(-230.174 -256.916)"/><path class="a" d="M134.144,123.169l.843,1.051a7.644,7.644,0,0,1,9.261,0l.843-1.051A8.963,8.963,0,0,0,134.144,123.169Z" transform="translate(-128.118 -86.247)"/><path class="a" d="M171.686,181.349l.843,1.051a4.7,4.7,0,0,1,5.889,0l.843-1.052A6.057,6.057,0,0,0,171.686,181.349Z" transform="translate(-163.974 -142.324)"/><path class="a" d="M0,48.52H9.363a2.025,2.025,0,0,1-1.906,1.348H6.783v1.348h9.434V49.867h-.674a2.025,2.025,0,0,1-1.906-1.348H23V31H0Zm12.849,1.348h-2.7a3.356,3.356,0,0,0,.607-1.348h1.484a3.356,3.356,0,0,0,.607,1.348Zm-11.5-17.52h20.3V47.172H1.348Z"/></g></svg>