<svg xmlns="http://www.w3.org/2000/svg" width="58.983" height="58.983" viewBox="0 0 58.983 58.983">
  <g>
    <path fill="rgb(255,255,255)" fill-rule="evenodd" d="M29.49169731 0c16.287817 0 29.49169731 13.20388317 29.49169731 29.49169731 0 16.287817-13.2038803 29.49169731-29.4916973 29.49169731C13.20388316 58.98339462 0 45.77951432 0 29.49169732 0 13.20388316 13.20388317 0 29.49169731 0z"/>
    <g>
      <path fill="rgb(66,66,66)" fill-rule="evenodd" d="M27.896 30.80494308l1.17141724 1.46139526c1.02746582-.82357788 2.48156738-.8218689 3.50689697 0l1.17144775-1.46139526c-1.69921875-1.36184693-4.13214111-1.37664795-5.84976196 0z"/>
      <path fill="rgb(66,66,66)" fill-rule="evenodd" d="M29.885 33.82h1.87289429v1.87280273H29.885V33.82z"/>
      <path fill="rgb(66,66,66)" fill-rule="evenodd" d="M23.214 24.7838082l1.17201233 1.46086121c3.6088562-2.89492798 9.26296997-2.89492798 12.87182617 0l1.17201233-1.4608612c-4.3060608-3.4542389-10.90267944-3.45991516-15.21585083 0z"/>
      <path fill="rgb(66,66,66)" fill-rule="evenodd" d="M25.558 27.70574925l1.17141724 1.46122741c2.39830017-1.92256164 5.79095459-1.91862488 8.18444824 0l1.17138672-1.46131897c-3.05838013-2.45153808-7.43585205-2.47821045-10.5272522.00009156z"/>
      <path fill="rgb(66,66,66)" fill-rule="evenodd" d="M16.10402637 40.05417041h12.0526123c-.35803222 1.00958252-1.32226562 1.73486328-2.453125 1.73486328h-.86743164v1.73486328H36.980125V41.7890337h-.86743164c-1.13085938 0-2.0949707-.72528076-2.453125-1.73486328h12.05273437V17.50100879H16.10402637V40.0541704zm27.87341308-20.81829834h-26.1385498v19.08343506h26.1385498V19.23587207zM32.645042 41.78903369h-3.47375488c.3795166-.5045166.65136719-1.09429932.78186035-1.73486328h1.91003418c.13049316.64056396.40234375 1.23034668.78186035 1.73486328z"/>
    </g>
  </g>
</svg>
