<svg id="Layer_1" data-name="Layer 1" xmlns="http://www.w3.org/2000/svg" viewBox="0 0 24 24"><defs><style>.cls-1{fill:none;}.cls-2{fill:#424242;}</style></defs><rect class="cls-1" width="24" height="24"/><path d="M13.892,21.408A9.449,9.449,0,0,1,12,21.6a9.647,9.647,0,0,1-9.434-7.9,14.5,14.5,0,0,1-.159-1.691.454.454,0,0,1,.414-.487.489.489,0,0,1,.066,0,.459.459,0,0,1,.443.318,1.615,1.615,0,0,1,.04.36v.03A8.635,8.635,0,1,0,15.063,3.923a8.344,8.344,0,0,0-3.037-.563,8.617,8.617,0,0,0-6.32,2.712c-.027.029-.052.06-.086.1l-.374.437H6.984c.463,0,.918,0,1.374,0a1.093,1.093,0,0,1,.29.031.456.456,0,0,1,.317.51.449.449,0,0,1-.42.408c-.124.007-.249.009-.374.009l-.392,0H4.407c-.413,0-.6-.186-.6-.6q0-2,0-3.994c0-.338.192-.574.462-.574a.562.562,0,0,1,.153.024.5.5,0,0,1,.346.528c0,.438,0,.876,0,1.314V5.592L5.211,5.2c.038-.034.066-.058.093-.084A9.446,9.446,0,0,1,11.961,2.4c.316,0,.641.014.967.043a9.6,9.6,0,0,1,.964,18.96Z"/><path class="cls-2" d="M12.928,2.448c-.326-.029-.651-.043-.967-.043A9.448,9.448,0,0,0,5.3,5.115c-.027.026-.055.051-.094.085l-.44.392V4.264q0-.657,0-1.314a.5.5,0,0,0-.346-.528A.568.568,0,0,0,4.27,2.4c-.271,0-.461.236-.462.574q-.006,2,0,3.994c0,.412.186.6.6.6H7.78l.391,0c.125,0,.25,0,.375-.009a.451.451,0,0,0,.42-.408.457.457,0,0,0-.317-.511,1.1,1.1,0,0,0-.291-.031c-.456,0-.911,0-1.374,0H5.246l.374-.437c.034-.04.059-.071.086-.1a8.618,8.618,0,0,1,6.32-2.709,8.364,8.364,0,0,1,3.037.562A8.635,8.635,0,1,1,3.372,12.231V12.2a1.552,1.552,0,0,0-.04-.36.458.458,0,0,0-.443-.318.489.489,0,0,0-.066.005.453.453,0,0,0-.413.487,14.286,14.286,0,0,0,.158,1.691A9.645,9.645,0,0,0,12,21.6a9.449,9.449,0,0,0,1.891-.192,9.6,9.6,0,0,0-.964-18.96Z"/><path class="cls-2" d="M12.016,12h1.932c1,0,2,0,3,0a.689.689,0,0,1,.659.641.7.7,0,0,1-.6.742,1.856,1.856,0,0,1-.224.008h-5.34a.721.721,0,0,1-.828-.821q0-2.713,0-5.428a.711.711,0,0,1,.6-.753.688.688,0,0,1,.765.482,1.411,1.411,0,0,1,.036.377q0,2.222,0,4.443Z"/></svg>