<svg xmlns="http://www.w3.org/2000/svg" xmlns:xlink="http://www.w3.org/1999/xlink" width="24" height="24" viewBox="0 0 24 24">
  <defs>
    <rect id="rect-1" width="24" height="24" x="0" y="0"/>
    <mask id="mask-2" maskContentUnits="userSpaceOnUse" maskUnits="userSpaceOnUse">
      <rect width="24" height="24" x="0" y="0" fill="black"/>
      <use fill="white" xlink:href="#rect-1"/>
    </mask>
  </defs>
  <g>
    <use fill="none" xlink:href="#rect-1"/>
    <g mask="url(#mask-2)">
      <path fill="none" d="M0 0h24v24H0V0z"/>
      <path fill="rgb(66,66,66)" fill-rule="evenodd" d="M5 13c.78000069 0 1.55000114-.2999878 2.1400013-.90002441 1.15999794-1.19000245 1.13999748-3.07995606-.04000092-4.23999024C6.51000023 7.28997803 5.75 7 5 7c-.77999878 0-1.54999924.2999878-2.13999939.90002441-1.15999985 1.19000245-1.13999939 3.07995606.04000092 4.23999024C3.49000168 12.71002197 4.25 13 5 13zm4-6h9c2.20999908 0 4 1.78997803 4 4v2H9V7zM4.289999 9.2999878C4.47999955 9.10998534 4.72999955 9 5 9c.26000023 0 .51000023.09997559.69999886.2800293.40000152.38995361.40000152 1.00994873.02000045 1.40997314C5.52000046 10.89001464 5.27000046 11 5 11c-.26000023 0-.51000023-.09997559-.70000076-.2800293-.39999962-.39996338-.39999962-1.0199585-.01000023-1.4199829zM11 11V9h7c1.09999847 0 2 .90002441 2 2h-9zm-3 7v-2H2v-2h20v2h-6v2H8z"/>
    </g>
  </g>
</svg>
