<svg xmlns="http://www.w3.org/2000/svg" width="44" height="44" viewBox="0 0 44 44"><defs><style>.a{fill:none;}.b{fill:#424242;}</style></defs><g transform="translate(0 0.077)"><rect class="a" width="44" height="44" transform="translate(0 -0.077)"/><path class="b" d="M45.135,25.4a9.431,9.431,0,0,0-.051-1.069,3.021,3.021,0,0,0-3.162-2.881c-1.666-.023-3.333,0-5-.009-.38,0-.76-.044-1.115-.066-.424-3.623-1.784-5.336-4.688-5.556A63.069,63.069,0,0,0,24.1,15.81a4.318,4.318,0,0,0-3.712,2.04A23.649,23.649,0,0,0,19,21.42c.12-.036.046.006-.029.006-1.825.01-3.65.013-5.475.024-2.295.013-3.45,1.152-3.452,3.417,0,5.674.088,11.35-.038,17.021-.065,2.921,1.537,3.959,3.962,3.948,9.048-.04,18.093-.013,27.14-.017,2.993,0,4.027-1.023,4.031-3.989Q45.145,33.616,45.135,25.4Zm-20.52-5.991c1.944-.028,3.889-.025,5.834,0,1.289.014,1.713.518,1.645,1.972H23.137C22.955,19.886,23.285,19.431,24.615,19.411ZM43.059,41.66A2.15,2.15,0,0,1,40.916,43.8H14.223a2.15,2.15,0,0,1-2.143-2.143V25.693a2.15,2.15,0,0,1,2.143-2.143H40.916a2.15,2.15,0,0,1,2.143,2.143Z" transform="translate(-5.608 -8.814)"/><path class="b" d="M47.075,46.963H44.94V44.828A1.434,1.434,0,0,0,43.511,43.4h-.817a1.434,1.434,0,0,0-1.429,1.429v2.135H39.13a1.434,1.434,0,0,0-1.43,1.428v.817a1.434,1.434,0,0,0,1.429,1.429h2.135v2.135a1.433,1.433,0,0,0,1.43,1.431h.817a1.433,1.433,0,0,0,1.429-1.429V50.639h2.135a1.434,1.434,0,0,0,1.43-1.429v-.817A1.434,1.434,0,0,0,47.075,46.963Z" transform="translate(-21.141 -24.337)"/></g></svg>