<svg xmlns="http://www.w3.org/2000/svg" width="55" height="55" viewBox="0 0 55 55"><defs><style>.a{fill:#424242;}.b{fill:none;}</style></defs><path class="a" d="M50.511,43.457a17,17,0,0,0,.35-2.286q.03-.36.043-.721c0-.031,0-.062,0-.093q-.013-.411-.045-.821a16.96,16.96,0,0,0-.459-2.75,21.8,21.8,0,0,0-1.378-3.85,24.765,24.765,0,0,0-1.786-3.177c-.181-.275-.381-.538-.579-.816a.627.627,0,0,0-.094.082,23.809,23.809,0,0,0-2.3,3.91,20.931,20.931,0,0,0-1.485,4.316,17.085,17.085,0,0,0-.35,2.286q-.03.36-.042.721c0,.031,0,.062,0,.093q.012.412.045.821a16.916,16.916,0,0,0,.459,2.75,21.81,21.81,0,0,0,1.378,3.85,24.77,24.77,0,0,0,1.786,3.177c.18.275.381.538.579.816a.638.638,0,0,0,.095-.082,23.809,23.809,0,0,0,2.3-3.91,20.93,20.93,0,0,0,1.485-4.315Z" transform="translate(-19.072 -13.024)"/><path class="a" d="M58.944,53.592a16.18,16.18,0,0,0,3.65-2.86,15.9,15.9,0,0,0,2.75-4.1c.012-.024.022-.047.032-.07a.445.445,0,0,0,.041-.1l.3-.674c.005-.012.011-.023.015-.034.191-.51.395-1.016.56-1.535.19-.6.378-1.195.509-1.8.184-.86.32-1.73.467-2.6a6.008,6.008,0,0,0,.042-.608.583.583,0,0,0-.113,0c-1.017.266-2.043.5-3.047.809a18.448,18.448,0,0,0-2.777,1.147A17.208,17.208,0,0,0,57,44.216a.37.37,0,0,0-.119.234,14.279,14.279,0,0,1-.3,3.446c-.2.849-.4,1.7-.668,2.526a15.475,15.475,0,0,1-.782,1.961c-.389.819-.825,1.615-1.261,2.412-.2.365-.44.706-.668,1.073a.471.471,0,0,0,.117,0c.9-.288,1.806-.55,2.692-.875A18.208,18.208,0,0,0,58.944,53.592Z" transform="translate(-23.944 -17.646)"/><path class="a" d="M73.239,54.471a27.212,27.212,0,0,0-3.52-.641,23.823,23.823,0,0,0-3.242-.094.224.224,0,0,0-.156.1c-.294.511-.563,1.038-.874,1.54a15.455,15.455,0,0,1-3.206,3.7,16.893,16.893,0,0,1-3.131,2.1c-.838.43-1.7.812-2.574,1.167-.638.26-1.307.44-1.964.66-.171.055-.346.1-.562.165a.729.729,0,0,0,.139.064c.925.129,1.847.272,2.774.381a17.442,17.442,0,0,0,5.029-.2,14.151,14.151,0,0,0,3.135-.922,16.532,16.532,0,0,0,4.246-2.661A22.687,22.687,0,0,0,73.8,54.649C73.6,54.588,73.424,54.516,73.239,54.471Z" transform="translate(-24.305 -24.173)"/><path class="a" d="M56.529,33.225c.026.035.025.089.042.132.055.136.11.275.165.41.1.266.192.533.288.8a18.563,18.563,0,0,1,.664,2.634c.058.333.1.669.162,1.037l.012-.011v0c.334-.275.645-.54.967-.793a18.113,18.113,0,0,1,3.41-2.106c.033-.016.064-.041.1-.059l.019-.009.026-.008a.59.59,0,0,0,.333-.169.287.287,0,0,0,.126-.248,1.637,1.637,0,0,0,.041-.344,21.934,21.934,0,0,0-.125-3.6c-.038-.3-.084-.6-.134-.9-.061-.42-.133-.84-.2-1.177-.028-.165-.055-.324-.084-.486a1.512,1.512,0,0,0-.082-.231c-.043.026-.087.055-.13.08s-.114.061-.17.094a23.173,23.173,0,0,0-5.268,4.18,1.518,1.518,0,0,0-.207.258.22.22,0,0,0-.064.179.464.464,0,0,0,.116.337Z" transform="translate(-25.385 -12.644)"/><path class="a" d="M33.323,52.382a15.473,15.473,0,0,1-.782-1.961c-.263-.829-.472-1.677-.668-2.526a14.278,14.278,0,0,1-.3-3.445.37.37,0,0,0-.119-.234,17.209,17.209,0,0,0-4.37-3.044,18.448,18.448,0,0,0-2.777-1.147c-1-.307-2.03-.543-3.047-.809a.583.583,0,0,0-.113,0,6.007,6.007,0,0,0,.042.608c.147.867.283,1.737.468,2.6.131.609.318,1.21.509,1.8.165.518.369,1.025.56,1.535,0,.012.01.023.015.034l.3.674a.445.445,0,0,0,.041.1c.01.024.021.047.032.07a15.9,15.9,0,0,0,2.75,4.1,16.18,16.18,0,0,0,3.65,2.86,18.209,18.209,0,0,0,2.926,1.4c.886.323,1.794.587,2.692.875a.471.471,0,0,0,.117,0c-.23-.367-.47-.708-.668-1.073C34.15,54,33.712,53.2,33.323,52.382Z" transform="translate(-9.516 -17.647)"/><path class="a" d="M27.272,62.349c-.872-.355-1.736-.738-2.574-1.167a16.894,16.894,0,0,1-3.131-2.1,15.455,15.455,0,0,1-3.2-3.7c-.311-.5-.58-1.028-.874-1.54a.224.224,0,0,0-.156-.1,23.822,23.822,0,0,0-3.242.094,27.211,27.211,0,0,0-3.52.641c-.185.045-.364.114-.566.178a22.687,22.687,0,0,0,4.472,5.19A16.532,16.532,0,0,0,18.722,62.5a14.151,14.151,0,0,0,3.135.922,17.442,17.442,0,0,0,5.029.2c.927-.11,1.85-.251,2.774-.381a.729.729,0,0,0,.139-.064c-.216-.063-.391-.11-.562-.165C28.577,62.792,27.908,62.609,27.272,62.349Z" transform="translate(-4.502 -24.172)"/><path class="a" d="M31.847,34.839a.287.287,0,0,0,.126.247.59.59,0,0,0,.333.169l.026.008.019.009c.031.018.062.043.1.059a18.113,18.113,0,0,1,3.413,2.106c.322.252.634.519.967.793v0l.012.011c.055-.368.1-.7.162-1.037a18.562,18.562,0,0,1,.664-2.635c.1-.267.191-.534.288-.8.055-.137.107-.275.165-.41.018-.043.016-.1.042-.132a.464.464,0,0,0,.114-.338.22.22,0,0,0-.064-.179A1.518,1.518,0,0,0,38,32.449a23.173,23.173,0,0,0-5.268-4.18c-.055-.033-.11-.063-.17-.094-.043-.027-.086-.055-.13-.08a1.513,1.513,0,0,0-.082.231c-.028.162-.055.324-.084.486-.072.337-.144.757-.2,1.177-.049.3-.1.6-.134.9a21.934,21.934,0,0,0-.125,3.6A1.638,1.638,0,0,0,31.847,34.839Z" transform="translate(-14.302 -12.643)"/><rect class="b" width="55" height="55"/></svg>