<svg id="Layer_1" data-name="Layer 1" xmlns="http://www.w3.org/2000/svg" xmlns:xlink="http://www.w3.org/1999/xlink" viewBox="0 0 52 52"><defs><style>.cls-1,.cls-2{fill-rule:evenodd;}.cls-2{fill:url(#linear-gradient);}.cls-3{fill:none;}</style><linearGradient id="linear-gradient" x1="26" y1="48" x2="26" y2="8" gradientTransform="matrix(1, 0, 0, -1, 0, 54)" gradientUnits="userSpaceOnUse"><stop offset="0" stop-color="#d80000"/><stop offset="1" stop-color="#b20000"/></linearGradient></defs><path id="path-1" class="cls-1" d="M26,46l-2.9-2.877C12.8,32.943,6,26.229,6,17.989,6,11.275,10.84,6,17,6a11.6,11.6,0,0,1,9,4.556A11.6,11.6,0,0,1,35,6c6.16,0,11,5.275,11,11.989,0,8.24-6.8,14.954-17.1,25.155Z" transform="translate(0 0)"/><path id="path-1-2" data-name="path-1" class="cls-2" d="M26,46l-2.9-2.877C12.8,32.943,6,26.229,6,17.989,6,11.275,10.84,6,17,6a11.6,11.6,0,0,1,9,4.556A11.6,11.6,0,0,1,35,6c6.16,0,11,5.275,11,11.989,0,8.24-6.8,14.954-17.1,25.155Z" transform="translate(0 0)"/><rect class="cls-3" width="52" height="52"/></svg>