<svg xmlns="http://www.w3.org/2000/svg" xmlns:xlink="http://www.w3.org/1999/xlink" width="22" height="22" viewBox="0 0 22 22">
  <defs>
    <path id="path-1" fill-rule="evenodd" d="M18 1H4c-1.09997559 0-2 .8999939-2 2v14c0 1.1000061.90002441 2 2 2h14c1.09997559 0 2-.8999939 2-2V3c0-1.1000061-.90002441-2-2-2zm-4 14h2V5h-2v10zm-2-5h-2V8h2v2zm-4 5H6v-5h2v5zm2 0h2v-3h-2v3z"/>
    <filter id="filter-2" width="200%" height="200%" x="-50%" y="-50%" color-interpolation-filters="sRGB" filterUnits="userSpaceOnUse">
      <feOffset dx="0" dy="1" in="SourceAlpha" result="shadow-1-feOffset-shadow"/>
      <feGaussianBlur in="shadow-1-feOffset-shadow" result="shadow-1-feGaussianBlur-shadow" stdDeviation="1.205"/>
      <feColorMatrix in="shadow-1-feGaussianBlur-shadow" result="shadow-1-feColorMatrix-shadow" type="matrix" values="0 0 0 0 0  0 0 0 0 0  0 0 0 0 0  0 0 0 0.5 0"/>
    </filter>
  </defs>
  <g>
    <use fill="black" stroke="black" stroke-opacity="0" stroke-width="0" filter="url(#filter-2)" xlink:href="#path-1"/>
    <use fill="rgb(255,255,255)" xlink:href="#path-1"/>
  </g>
</svg>
