<svg id="Layer_1" data-name="Layer 1" xmlns="http://www.w3.org/2000/svg" viewBox="0 0 24 24"><defs><style>.cls-1{fill:none;}.cls-2{fill:#424242;}</style></defs><rect class="cls-1" width="24" height="24"/><path class="cls-2" d="M17.977,9.548a.686.686,0,1,0-.686.687A.67.67,0,0,0,17.977,9.548Zm-.98,0a.294.294,0,0,1,.588,0,.26.26,0,0,1-.294.294A.313.313,0,0,1,17,9.548Z"/><path class="cls-2" d="M7.588,14.155a1.894,1.894,0,0,1-.981-.294l-.1.784a1.972,1.972,0,0,0,1.275.392c1.078,0,1.764-.588,1.764-1.47a1.164,1.164,0,0,0-.98-1.176,1.273,1.273,0,0,0,.784-1.176v-.1a1.314,1.314,0,0,0-1.47-1.078,3.121,3.121,0,0,0-1.373.294l.2.882a1.371,1.371,0,0,1,.883-.294c.49,0,.686.2.686.49,0,.392-.49.588-.784.588H7.1v.784H7.49c.49,0,.882.2.882.686A.7.7,0,0,1,7.588,14.155Z"/><path class="cls-2" d="M12.586,10.921h.392l-.2-.882H12.39a2.3,2.3,0,0,0-1.666.686,3.425,3.425,0,0,0-.784,2.156c0,1.176.588,2.156,1.764,2.156h.1a1.656,1.656,0,0,0,1.569-1.764v-.1A1.425,1.425,0,0,0,12,11.705a1.064,1.064,0,0,0-.882.392A1.561,1.561,0,0,1,12.586,10.921ZM11.7,12.489c.49,0,.686.392.686.882s-.2.882-.588.784c-.49,0-.686-.49-.686-.98v-.294A.662.662,0,0,1,11.7,12.489Z"/><path class="cls-2" d="M15.429,10.039c-1.176,0-1.666,1.078-1.666,2.548,0,1.372.588,2.548,1.666,2.548s1.666-.98,1.666-2.548C17.1,11.215,16.7,10.039,15.429,10.039Zm0,4.214c-.392,0-.588-.49-.588-1.666s.294-1.666.588-1.666c.392,0,.588.588.588,1.666S15.821,14.253,15.429,14.253Z"/><path class="cls-2" d="M20.305,8.375a9.037,9.037,0,0,0-6.233-4.6c.41-.209.813-.42,1.164-.631l.135-.081-.05-.149a3.764,3.764,0,0,0-.3-.618c-.04-.071-.077-.135-.105-.192l-.088-.175-.175.088c-.492.246-1.006.515-1.522.786s-1.027.538-1.516.782l-.176.088.452.916c.376.77.765,1.566,1.211,2.311l.081.135.15-.05a2.1,2.1,0,0,0,.43-.214,1.8,1.8,0,0,1,.353-.178l.2-.068-.084-.2a8.244,8.244,0,0,0-.5-.954c-.11-.19-.22-.379-.324-.581a7.936,7.936,0,0,1,5.864,4.059,7.483,7.483,0,0,1-.475,8.512,7.585,7.585,0,0,1-6.348,3.284,11.194,11.194,0,0,1-2.565-.319l-.241-.057v.247a1.517,1.517,0,0,1-.125.547l-.123.363.187.061a9.252,9.252,0,0,0,2.873.454,8.575,8.575,0,0,0,8.147-5.361A8.525,8.525,0,0,0,20.305,8.375Z"/><path class="cls-2" d="M8.763,17.373l-.015-.179h-.18a2.935,2.935,0,0,0-.474.051,2.463,2.463,0,0,1-.408.046H7.46l.273,1.916a7.777,7.777,0,0,1-4.164-6.62c0-4.483,2.291-7.21,7.005-8.337l.15-.036V4.059a2.09,2.09,0,0,0-.053-.43,1.718,1.718,0,0,1-.045-.354V3.059l-.216.021A8.981,8.981,0,0,0,3,8.788a8.156,8.156,0,0,0,0,6.512,9.117,9.117,0,0,0,3.83,4.72c-.467.072-.9.143-1.325.215l-.165.026v.167a2.925,2.925,0,0,0,.052.474,2.475,2.475,0,0,1,.046.408v.232l.228-.038c.587-.1,1.147-.171,1.709-.244s1.132-.148,1.722-.246l.193-.033-.1-.626C9.009,19.348,8.848,18.4,8.763,17.373Z"/></svg>