<?xml version="1.0" encoding="utf-8"?>
<!-- Generator: Adobe Illustrator 24.2.3, SVG Export Plug-In . SVG Version: 6.00 Build 0)  -->
<svg version="1.1" id="Layer_1" xmlns="http://www.w3.org/2000/svg" xmlns:xlink="http://www.w3.org/1999/xlink" x="0px" y="0px"
	 viewBox="0 0 24 24" style="enable-background:new 0 0 24 24;" xml:space="preserve">
<style type="text/css">
	.st0{fill:none;}
	.st1{fill:#424242;}
</style>
<rect class="st0" width="24" height="24"/>
<g>
	<g>
		<path class="st1" d="M17.4,10.2c-0.4,0-0.7-0.3-0.7-0.7c0-0.4,0.3-0.7,0.7-0.7c0.4,0,0.7,0.3,0.7,0.7
			C18.1,9.9,17.8,10.2,17.4,10.2C17.4,10.2,17.4,10.2,17.4,10.2z M17.4,9.8c0.2,0,0.3-0.1,0.3-0.3c0,0,0,0,0,0v0
			c0-0.2-0.2-0.3-0.3-0.3c-0.2,0-0.3,0.2-0.3,0.3C17.1,9.7,17.3,9.8,17.4,9.8z"/>
		<path class="st1" d="M6.5,13.9c0.3,0.2,0.7,0.3,1,0.3c0.5,0,0.8-0.3,0.8-0.7c0-0.5-0.4-0.7-0.9-0.7H7V12h0.4
			c0.3,0,0.8-0.2,0.8-0.6c0-0.3-0.2-0.5-0.7-0.5c-0.3,0-0.7,0.1-0.9,0.3l-0.2-0.9C6.8,10.1,7.3,10,7.8,10c0.7-0.1,1.4,0.4,1.5,1.1
			c0,0,0,0.1,0,0.1c0,0.5-0.3,1-0.8,1.2v0c0.6,0.1,1,0.6,1,1.2c0,0.9-0.7,1.5-1.8,1.5c-0.5,0-0.9-0.1-1.3-0.4L6.5,13.9z"/>
		<path class="st1" d="M13,10.9c-0.1,0-0.3,0-0.4,0c-0.7,0-1.3,0.5-1.5,1.2h0c0.2-0.3,0.6-0.4,0.9-0.4c0.8,0,1.4,0.7,1.4,1.5
			c0,0,0,0.1,0,0.1c0.1,0.9-0.7,1.8-1.6,1.8c0,0,0,0-0.1,0c-1.2,0-1.8-1-1.8-2.2c0-0.8,0.3-1.6,0.8-2.2c0.5-0.5,1.1-0.7,1.7-0.7
			c0.1,0,0.3,0,0.4,0L13,10.9z M12.4,13.4c0-0.5-0.2-0.9-0.7-0.9c-0.3,0-0.5,0.2-0.6,0.4c0,0.1,0,0.2,0,0.3c0,0.5,0.2,1,0.7,1
			C12.2,14.3,12.4,13.9,12.4,13.4L12.4,13.4z"/>
		<path class="st1" d="M17.2,12.6c0,1.6-0.6,2.6-1.7,2.6s-1.7-1.2-1.7-2.6c0-1.5,0.5-2.6,1.7-2.6C16.8,10,17.2,11.2,17.2,12.6z
			 M14.9,12.6c0,1.2,0.2,1.7,0.6,1.7s0.6-0.6,0.6-1.7c0-1.1-0.2-1.7-0.6-1.7C15.2,10.9,14.9,11.4,14.9,12.6L14.9,12.6z"/>
	</g>
	<g>
		<path class="st1" d="M9.6,21.5c0.1-0.3,0.2-0.5,0.2-0.8c3.8,0.9,7,0,9.3-3.1c2-2.8,2.2-5.8,0.5-8.9c-1.4-2.5-3.6-3.9-6.5-4.3
			c0.3,0.7,0.7,1.2,1,1.9c-0.3,0.1-0.5,0.3-0.8,0.4c-0.6-1-1.1-2.1-1.6-3.1c1-0.5,2.1-1.1,3.1-1.6c0.1,0.2,0.3,0.5,0.4,0.8
			c-0.5,0.3-1.1,0.6-1.7,0.9c3,0.5,5.3,2,6.8,4.7c1.5,2.7,1.6,5.4,0.3,8.2C18.9,21,13.9,22.9,9.6,21.5z"/>
		<path class="st1" d="M7.9,19.7c-0.1-0.7-0.2-1.4-0.3-2.1c0.3,0,0.6-0.1,0.9-0.1C8.6,18.7,8.8,19.8,9,21c-1.2,0.2-2.3,0.3-3.5,0.5
			c0-0.3-0.1-0.6-0.1-0.9c0.6-0.1,1.2-0.2,1.9-0.3c-2.1-1.2-3.5-2.8-4.3-5C2.1,13.2,2.1,11,3,8.8c1.3-3.4,4.4-5.4,7.4-5.7
			c0,0.3,0.1,0.5,0.1,0.8C5.9,5,3.2,7.7,3.2,12.6C3.3,16,5.5,18.6,7.9,19.7z"/>
	</g>
</g>
</svg>
