<svg xmlns="http://www.w3.org/2000/svg" width="29.94" height="29.5" viewBox="0 0 29.94 29.5">
  <path fill="rgb(255,255,255)" fill-rule="evenodd" d="M23.97888184 12.85897446c0-4.6443596-2.46240235-8.53230667-6.75671387-9.56102562V2.26922989C17.22216797 1.01358986 16.21618652 0 14.96984863 0c-1.24621582 0-2.25219726 1.01358986-2.25219726 2.26922989v1.02871895C8.4083252 4.32666779 5.9609375 8.19948769 5.9609375 12.85897446v7.56410217l-3.00305176 3.02563858v1.51282501H26.9819336v-1.51282501l-3.00305175-3.02563858v-7.56410217zM6.18615723.22692299l2.1472168 2.1633339c-3.06311036 2.19359016-5.10510255 5.7033329-5.33032227 9.71230506H0C.21020508 7.26153945 2.5826416 2.99538422 6.18615723.226923zM29.9399414 12.10256195h-3.00305176c-.22521973-4.00897217-2.28222656-7.51871681-5.31530762-9.71230507l2.13208008-2.1633339c3.58862305 2.76846124 5.96105957 7.03461648 6.1862793 11.87563897zm-14.36938477 17.3369255C15.37536621 29.48487474 15.18017578 29.5 14.9699707 29.5c-1.66674804 0-3.00305175-1.36153793-3.0180664-3.0256424h6.00598144q0 .63538743-.22521972 1.18000031c-.39038086.90769196-1.18615723 1.57333374-2.16210938 1.78512955z"/>
</svg>
