<svg id="Layer_1" data-name="Layer 1" xmlns="http://www.w3.org/2000/svg" viewBox="0 0 24 24"><defs><style>.cls-1{fill:none;}.cls-2{fill:#424242;}</style></defs><rect class="cls-1" width="24" height="24"/><path class="cls-2" d="M12,3,1,11.4l1.21,1.59L4,11.62V21H20V11.62l1.79,1.36L23,11.4Zm6,16H6V10.1l6-4.58,6,4.58Z"/><path class="cls-2" d="M12,11.863a1.875,1.875,0,1,0-1.875-1.875A1.875,1.875,0,0,0,12,11.863ZM12,9.05a.938.938,0,1,1-.938.938A.941.941,0,0,1,12,9.05ZM15,13.063a6.5,6.5,0,0,0-5.99,0,1.394,1.394,0,0,0-.755,1.247v3.178h.938V14.309a.454.454,0,0,1,.243-.412A5.677,5.677,0,0,1,12,13.269a5.231,5.231,0,0,1,1,.093l-.726,1.547H10.945a1.289,1.289,0,0,0,0,2.578h3.867a.94.94,0,0,0,.938-.937V14.309A1.391,1.391,0,0,0,15,13.063ZM11.5,16.55h-.558a.352.352,0,0,1,0-.7h.886Zm3.309,0H12.539l1.378-2.939a5.994,5.994,0,0,1,.656.286.458.458,0,0,1,.239.412Z"/></svg>