<svg xmlns="http://www.w3.org/2000/svg" xmlns:xlink="http://www.w3.org/1999/xlink" width="24" height="24" viewBox="0 0 24 24">
  <defs>
    <rect id="rect-1" width="24" height="24" x="0" y="0"/>
    <mask id="mask-2" maskContentUnits="userSpaceOnUse" maskUnits="userSpaceOnUse">
      <rect width="24" height="24" x="0" y="0" fill="black"/>
      <use fill="white" xlink:href="#rect-1"/>
    </mask>
  </defs>
  <g>
    <use fill="none" xlink:href="#rect-1"/>
    <g mask="url(#mask-2)">
      <path fill="none" d="M0 0h24v24H0V0z"/>
      <path fill="rgb(66,66,66)" fill-rule="evenodd" d="M22 6c0-1.09999847-.90002441-2-2-2H4c-1.09997559 0-2 .90000153-2 2v12c0 1.1000061.90002441 2 2 2h16c1.09997559 0 2-.8999939 2-2V6zm-2 0l-8 5-8-5h16zm-8 7L4 8v10h16V8l-8 5z"/>
    </g>
  </g>
</svg>
