<svg id="Layer_1" data-name="Layer 1" xmlns="http://www.w3.org/2000/svg" viewBox="0 0 24 24"><defs><style>.cls-1{fill:none;}.cls-2{fill:#424242;}</style></defs><rect class="cls-1" width="24" height="24"/><path class="cls-2" d="M11.064,2.557c.323-.029.648-.044,1-.044A9.411,9.411,0,0,1,18.7,5.236l.191.171V3.273a.69.69,0,0,1,.482-.727.711.711,0,0,1,.2-.029h.038a.687.687,0,0,1,.612.754v0q.006,1.962,0,3.918a.686.686,0,0,1,0,.181.7.7,0,0,1-.785.6H15.746c-.128,0-.255,0-.381-.009a.632.632,0,0,1-.593-.564.649.649,0,0,1,.458-.724,1.286,1.286,0,0,1,.327-.036h2.632l-.168-.2a8.325,8.325,0,0,0-6.076-2.6,7.962,7.962,0,0,0-2.891.539,8.274,8.274,0,1,0,11.2,7.935A1.7,1.7,0,0,1,20.3,11.9a.665.665,0,0,1,.686-.443h.016a.641.641,0,0,1,.584.681,14.234,14.234,0,0,1-.155,1.687A9.591,9.591,0,1,1,11.064,2.55Z"/><path class="cls-2" d="M17.835,9.849a.686.686,0,1,0-.686.687.67.67,0,0,0,.686-.654h0Zm-.98,0a.294.294,0,0,1,.588,0h0a.26.26,0,0,1-.221.294h0a.3.3,0,0,1-.073,0,.313.313,0,0,1-.291-.294Z"/><path class="cls-2" d="M7.446,14.456a1.9,1.9,0,0,1-.981-.294l-.1.784a1.973,1.973,0,0,0,1.275.392c1.078,0,1.764-.588,1.764-1.47a1.164,1.164,0,0,0-.98-1.176,1.274,1.274,0,0,0,.784-1.176v-.1a1.315,1.315,0,0,0-1.47-1.078,3.114,3.114,0,0,0-1.373.294l.2.882a1.37,1.37,0,0,1,.883-.294c.49,0,.686.2.686.49,0,.392-.49.588-.784.588H6.958v.784h.39c.49,0,.882.2.882.686a.7.7,0,0,1-.707.693h0A.664.664,0,0,1,7.446,14.456Z"/><path class="cls-2" d="M12.444,11.222h.392l-.2-.882h-.388a2.3,2.3,0,0,0-1.666.686A3.422,3.422,0,0,0,9.8,13.182c0,1.176.588,2.156,1.764,2.156h.1a1.656,1.656,0,0,0,1.57-1.737v-.127a1.425,1.425,0,0,0-1.373-1.468,1.063,1.063,0,0,0-.882.392A1.56,1.56,0,0,1,12.444,11.222Zm-.886,1.568c.49,0,.686.392.686.882s-.2.882-.588.784c-.49,0-.686-.49-.686-.98v-.294A.662.662,0,0,1,11.558,12.79Z"/><path class="cls-2" d="M15.287,10.34c-1.176,0-1.666,1.078-1.666,2.548,0,1.372.588,2.548,1.666,2.548s1.666-.98,1.666-2.548C16.958,11.516,16.558,10.34,15.287,10.34Zm0,4.214c-.392,0-.588-.49-.588-1.666s.294-1.666.588-1.666c.392,0,.588.588.588,1.666S15.679,14.554,15.287,14.554Z"/></svg>