<svg id="Layer_1" data-name="Layer 1" xmlns="http://www.w3.org/2000/svg" viewBox="0 0 63.111 25.056"><defs><style>.cls-1{fill:none;}.cls-2{fill:#424242;}</style></defs><rect class="cls-1" x="39.111" width="24" height="24"/><path class="cls-2" d="M11.064,2.557c.323-.029.648-.044,1-.044A9.407,9.407,0,0,1,18.7,5.236l.191.171V3.273a.69.69,0,0,1,.482-.727.711.711,0,0,1,.2-.029l.038,0a.687.687,0,0,1,.612.756q.006,1.962,0,3.918a.686.686,0,0,1,0,.181.7.7,0,0,1-.785.6H15.746c-.128,0-.255,0-.381-.009a.632.632,0,0,1-.593-.564.648.648,0,0,1,.458-.724,1.286,1.286,0,0,1,.327-.036h2.632l-.168-.2a8.325,8.325,0,0,0-6.076-2.6,7.962,7.962,0,0,0-2.891.539,8.274,8.274,0,1,0,11.2,7.935,1.693,1.693,0,0,1,.049-.414.665.665,0,0,1,.686-.443h.016a.641.641,0,0,1,.584.681,14.234,14.234,0,0,1-.155,1.687,9.668,9.668,0,0,1-9.445,7.906,9.614,9.614,0,0,1-.925-19.18Z" transform="translate(39.111)"/><path class="cls-2" d="M17.835,9.849a.686.686,0,1,0-.686.687.67.67,0,0,0,.686-.654Zm-.98,0a.294.294,0,1,1,.588,0,.26.26,0,0,1-.221.294.3.3,0,0,1-.073,0,.313.313,0,0,1-.291-.294Z" transform="translate(39.111)"/><path class="cls-2" d="M7.446,14.456a1.9,1.9,0,0,1-.981-.294l-.1.784a1.972,1.972,0,0,0,1.275.392c1.078,0,1.764-.588,1.764-1.47a1.164,1.164,0,0,0-.98-1.176,1.274,1.274,0,0,0,.784-1.176v-.1a1.315,1.315,0,0,0-1.47-1.078,3.114,3.114,0,0,0-1.373.294l.2.882a1.37,1.37,0,0,1,.883-.294c.49,0,.686.2.686.49,0,.392-.49.588-.784.588H6.958v.784h.39c.49,0,.882.2.882.686a.7.7,0,0,1-.707.693A.649.649,0,0,1,7.446,14.456Z" transform="translate(39.111)"/><path class="cls-2" d="M12.444,11.222h.392l-.2-.882h-.388a2.3,2.3,0,0,0-1.666.686A3.424,3.424,0,0,0,9.8,13.182c0,1.176.588,2.156,1.764,2.156h.1a1.656,1.656,0,0,0,1.57-1.737v-.127a1.425,1.425,0,0,0-1.373-1.468,1.063,1.063,0,0,0-.882.392A1.561,1.561,0,0,1,12.444,11.222Zm-.886,1.568c.49,0,.686.392.686.882s-.2.882-.588.784c-.49,0-.686-.49-.686-.98v-.294A.662.662,0,0,1,11.558,12.79Z" transform="translate(39.111)"/><path class="cls-2" d="M15.287,10.34c-1.176,0-1.666,1.078-1.666,2.548,0,1.372.588,2.548,1.666,2.548s1.666-.98,1.666-2.548C16.958,11.516,16.558,10.34,15.287,10.34Zm0,4.214c-.392,0-.588-.49-.588-1.666s.294-1.666.588-1.666c.392,0,.588.588.588,1.666S15.679,14.554,15.287,14.554Z" transform="translate(39.111)"/><path class="cls-1" d="M-39.111,1.056h24v24h-24Z" transform="translate(39.111)"/></svg>