<svg id="Layer_1" data-name="Layer 1" xmlns="http://www.w3.org/2000/svg" viewBox="0 0 24 24"><defs><style>.cls-1{fill:none;}.cls-2{fill:#424242;}</style></defs><rect class="cls-1" width="24" height="24"/><path class="cls-2" d="M21.54,18.019c-.012-.3-.024-.6-.036-.927L21.3,15.466c-.006-.068-.015-.136-.027-.2l-.025-.138a3.668,3.668,0,0,0-1.213-1.987,10.614,10.614,0,0,0-3.163-1.866,1.111,1.111,0,0,0-.416-.091.909.909,0,0,0-.812.605,2.963,2.963,0,0,1-2.553,1.854,2.823,2.823,0,0,1-1.6-.541,5.14,5.14,0,1,0-.789,7.347,1.1,1.1,0,0,0-.016.133.742.742,0,0,0,.183.569,1,1,0,0,0,.751.272q.344,0,.687,0h1.052q3.642,0,7.284,0c.835,0,.962-.434.963-.692C21.611,19.826,21.575,18.907,21.54,18.019Zm-14.881-5a3.48,3.48,0,0,1,.879-.113h.076A3.505,3.505,0,0,1,10.7,14.929a3.425,3.425,0,0,1,.21.585,3.488,3.488,0,1,1-4.254-2.5Zm5.892,2.215.3.021.155,0a4.446,4.446,0,0,0,3.823-2.244,6.176,6.176,0,0,1,2.8,2.18l.332,2.519c-.012.558-.01,1.111-.008,1.7v.409H11.621a1.533,1.533,0,0,0-.262.02A5.126,5.126,0,0,0,12.551,15.233Z"/><path class="cls-2" d="M12.829,12.93a.746.746,0,0,0,.424.132.755.755,0,0,0,.623-.329c.015-.022.028-.045.041-.068a.777.777,0,0,0-.2-1.066.839.839,0,0,0-.081-.05c-.153-.1-.309-.2-.465-.3-.306-.2-.624-.4-.915-.621a5.673,5.673,0,0,1-2.325-3.4,3.277,3.277,0,0,1,1.2-3.27,3.307,3.307,0,0,1,1.834-.509,3.4,3.4,0,0,1,1.8.479,3.129,3.129,0,0,1,1.28,3.187,3.723,3.723,0,0,1-2.1,2.843,1.029,1.029,0,0,0-.573.63.724.724,0,0,0,.113.6.766.766,0,0,0,.649.366,1.21,1.21,0,0,0,.546-.153,5.362,5.362,0,0,0,3.032-4.826,4.469,4.469,0,0,0-2.49-4.224,5.507,5.507,0,0,0-2.339-.558,4.652,4.652,0,0,0-2.833.977,4.522,4.522,0,0,0-1.707,4.7C8.867,10.364,11.024,11.915,12.829,12.93Z"/><path class="cls-2" d="M5.6,16.973H6.981v1.383a.617.617,0,0,0,1.234,0V16.973H9.6a.617.617,0,1,0,0-1.234H8.215V14.357a.617.617,0,0,0-1.234,0v1.382H5.6a.617.617,0,0,0,0,1.234Z"/></svg>