<svg id="Layer_1" data-name="Layer 1" xmlns="http://www.w3.org/2000/svg" viewBox="0 0 24 24"><defs><style>.cls-1{fill:none;}.cls-2{fill:#424242;}</style></defs><path class="cls-1" d="M0,0H24V24H0Z"/><path class="cls-2" d="M12.5,10a3,3,0,1,0-3,3A3.009,3.009,0,0,0,12.5,10Zm-3,1a1,1,0,1,1,1-1A1,1,0,0,1,9.5,11ZM16,13a2,2,0,1,0-2-2A1.993,1.993,0,0,0,16,13ZM11.99,2.01a10,10,0,1,0,10,10A10,10,0,0,0,11.99,2.01ZM5.84,17.12A6.813,6.813,0,0,1,9.5,16.01c.07,0,.15.01.23.01a4.825,4.825,0,0,1,1.3-1.86A9.05,9.05,0,0,0,9.5,14a8.939,8.939,0,0,0-4.73,1.43A7.884,7.884,0,0,1,3.99,12a8,8,0,1,1,15.25,3.37A7.041,7.041,0,0,0,16,14.5c-1.52,0-4.5.81-4.5,2.7v2.78A7.935,7.935,0,0,1,5.84,17.12Z"/></svg>