<svg id="Layer_1" data-name="Layer 1" xmlns="http://www.w3.org/2000/svg" xmlns:xlink="http://www.w3.org/1999/xlink" viewBox="0 0 24 24"><defs><style>.cls-1{fill:#fff;}.cls-2{fill:none;}.cls-3{mask:url(#mask);}.cls-4,.cls-5{fill:#db1962;}.cls-4{fill-rule:evenodd;}</style><mask id="mask" x="0" y="0" width="24" height="24" maskUnits="userSpaceOnUse"><g id="mask-2"><rect width="24" height="24"/><rect id="rect-1" class="cls-1" width="24" height="24"/></g></mask></defs><rect id="rect-1-2" data-name="rect-1" class="cls-2" width="24" height="24"/><g class="cls-3"><path class="cls-2" d="M0,0H24V24H0Z"/><path class="cls-4" d="M18,8h1a3,3,0,0,1,3,3v6H18v4H6V17H2V11A3,3,0,0,1,5,8H6V3H18ZM16,5H8V8h8Zm2,8v2h2V11a1,1,0,0,0-1-1H5a1,1,0,0,0-1,1v4H6V13ZM8,15h8v4H8Z"/><circle class="cls-5" cx="18" cy="11.5" r="1"/></g></svg>