<svg id="Layer_1" data-name="Layer 1" xmlns="http://www.w3.org/2000/svg" xmlns:xlink="http://www.w3.org/1999/xlink" viewBox="0 0 24 24"><defs><style>.cls-1{fill:#fff;}.cls-2{fill:none;}.cls-3{mask:url(#mask);}.cls-4{fill:#db1962;fill-rule:evenodd;}</style><mask id="mask" x="0" y="0" width="24" height="24" maskUnits="userSpaceOnUse"><g id="mask-2"><rect width="24" height="24"/><rect id="rect-1" class="cls-1" width="24" height="24"/></g></mask></defs><rect id="rect-1-2" data-name="rect-1" class="cls-2" width="24" height="24"/><g class="cls-3"><path class="cls-2" d="M0,0H24V24H0Z"/><path class="cls-4" d="M4,18v-.65a.946.946,0,0,1,.41-.81A10.889,10.889,0,0,1,10,15a.22.22,0,0,1,.08.01,6.886,6.886,0,0,1,.59-1.98c-.22-.02-.44-.03-.67-.03a12.876,12.876,0,0,0-6.61,1.82A2.922,2.922,0,0,0,2,17.35V20h9.26a7.132,7.132,0,0,1-.97-2Z"/><path class="cls-4" d="M14,8a4,4,0,1,1-4-4A4,4,0,0,1,14,8ZM12,8a2,2,0,1,0-2,2A2.006,2.006,0,0,0,12,8Z"/><path class="cls-4" d="M20.69,15.37a4.338,4.338,0,0,1,.06.63,4.338,4.338,0,0,1-.06.63l1.14,1.01-1,1.73-1.45-.49a3.647,3.647,0,0,1-1.08.63L18,21H16l-.3-1.49a3.647,3.647,0,0,1-1.08-.63l-1.45.49-1-1.73,1.14-1.01a4.338,4.338,0,0,1-.06-.63,4.338,4.338,0,0,1,.06-.63l-1.14-1.01,1-1.73,1.45.49a3.647,3.647,0,0,1,1.08-.63L16,11h2l.3,1.49a3.647,3.647,0,0,1,1.08.63l1.45-.49,1,1.73ZM15,16a2,2,0,1,0,2-2A2.006,2.006,0,0,0,15,16Z"/></g></svg>