<svg xmlns="http://www.w3.org/2000/svg" xmlns:xlink="http://www.w3.org/1999/xlink" width="24" height="24" viewBox="0 0 24 24">
  <defs>
    <rect id="rect-1" width="24" height="24" x="0" y="0"/>
    <mask id="mask-2" maskContentUnits="userSpaceOnUse" maskUnits="userSpaceOnUse">
      <rect width="24" height="24" x="0" y="0" fill="black"/>
      <use fill="white" xlink:href="#rect-1"/>
    </mask>
  </defs>
  <g>
    <use fill="none" xlink:href="#rect-1"/>
    <g mask="url(#mask-2)">
      <path fill="none" d="M0 0h24v24H0V0z"/>
      <g>
        <path fill="rgb(0,0,0)" fill-rule="evenodd" d="M4 18v-.65c0-.34.16-.66.41-.81C6.1 15.53 8.03 15 10 15c.03 0 .05 0 .08.01.1-.7.3-1.37.59-1.98-.22-.02-.44-.03-.67-.03-2.42 0-4.68.67-6.61 1.82-.88.52-1.39 1.5-1.39 2.53V20h9.26c-.42-.6-.75-1.28-.97-2H4z"/>
        <path fill="rgb(66,66,66)" fill-rule="evenodd" d="M14 8c0 2.20999908-1.79003906 4-4 4s-4-1.79000092-4-4c0-2.20999908 1.79003906-4 4-4s4 1.79000092 4 4zm-2 0c0-1.09999847-.90002441-2-2-2-1.09997559 0-2 .90000153-2 2s.90002441 2 2 2c1.09997559 0 2-.90000153 2-2z"/>
        <path fill="rgb(66,66,66)" fill-rule="evenodd" d="M20.69006348 15.37000275C20.72009278 15.58000183 20.75 15.77999878 20.75 16c0 .22000122-.02990723.41999817-.05993652.62999725l1.14001465 1.01000214-1 1.73000336-1.45007325-.4900055c-.31994629.27000428-.67993164.48000336-1.07995605.63000489L18 21h-2l-.29992676-1.48999786c-.40002441-.15000153-.76000976-.36000061-1.08007812-.63000489l-1.44995117.4900055-1-1.73000336 1.14001464-1.01000214C13.2800293 16.41999817 13.25 16.22000122 13.25 16c0-.22000122.0300293-.41999817.0600586-.62999725l-1.14001465-1.01000214 1-1.73000336 1.44995117.4900055c.32006836-.27000428.6800537-.48000336 1.08007812-.63000489L16 11h2l.30004883 1.48999786c.40002441.15000153.76000976.36000061 1.07995605.63000489l1.45007324-.4900055 1 1.73000336-1.14001464 1.01000214zM15 16c0 1.09999847.90002441 2 2 2 1.09997559 0 2-.90000153 2-2s-.90002441-2-2-2c-1.09997559 0-2 .90000153-2 2z"/>
      </g>
    </g>
  </g>
</svg>
