<svg id="Layer_1" data-name="Layer 1" xmlns="http://www.w3.org/2000/svg" viewBox="0 0 24 24"><defs><style>.cls-1{fill:none;}.cls-2{fill:#424242;}</style></defs><rect class="cls-1" width="24" height="24"/><path class="cls-2" d="M12.031,13.65a.51.51,0,0,1-.184.182.506.506,0,0,1,.186.187.52.52,0,0,1,.07-.092.561.561,0,0,1,.114-.092A.54.54,0,0,1,12.031,13.65Z"/><path class="cls-2" d="M21.862,13.446a4.667,4.667,0,0,0-.385-1.029,4.816,4.816,0,0,0-1.406-1.67,4.705,4.705,0,0,0-1.7-.812,4.383,4.383,0,0,0-1.08-.147h0c-.167,0-.334.011-.5.023l0-.031a4.951,4.951,0,0,0-.2-1.8,4.728,4.728,0,0,0-.516-1.114,4.829,4.829,0,0,0-1.2-1.31A4.882,4.882,0,0,0,12.246,4.6c-.08,0-.16,0-.239,0A4.818,4.818,0,0,0,8.082,6.613a4.778,4.778,0,0,0-.605,1.146,4.7,4.7,0,0,0-.215.809A5.429,5.429,0,0,0,2.894,11a5.111,5.111,0,0,0-.568,1.126,7.837,7.837,0,0,0-.218.787A3.737,3.737,0,0,0,2,13.8c0,.238.014.491.033.774a4.488,4.488,0,0,0,.215,1.043,5.366,5.366,0,0,0,.582,1.25,5.458,5.458,0,0,0,2.185,1.976,5.189,5.189,0,0,0,1.127.409,4.612,4.612,0,0,0,1.092.148q.765,0,1.531,0h1.666v0h3.844c.04,0,.08,0,.12,0a.534.534,0,0,0,.413-.77.557.557,0,0,0-.534-.3H10.565c-1.017,0-2.034,0-3.062,0a4.457,4.457,0,0,1-1.816-.363,4.218,4.218,0,0,1-1.211-.789,4.335,4.335,0,0,1-1.237-2,4.459,4.459,0,0,1-.164-.953,4.328,4.328,0,0,1,.913-2.92,4.395,4.395,0,0,1,1.052-.967,4.271,4.271,0,0,1,1.177-.54,3.442,3.442,0,0,1,.715-.14c.273-.015.495-.023.7-.023h.081a.543.543,0,0,0,.557-.5,3.684,3.684,0,0,1,.173-.894A3.61,3.61,0,0,1,9,7.183a3.791,3.791,0,0,1,3.018-1.517,3.75,3.75,0,0,1,1.035.15,3.608,3.608,0,0,1,1.209.613A3.73,3.73,0,0,1,15.53,8.182a3.688,3.688,0,0,1,.2.961,3.643,3.643,0,0,1-.093,1.121.59.59,0,0,0,.089.517.535.535,0,0,0,.428.2.63.63,0,0,0,.127-.013c.169-.033.347-.061.543-.086a3.231,3.231,0,0,1,.406-.026,3.655,3.655,0,0,1,1.236.225,3.6,3.6,0,0,1,1.131.657,3.717,3.717,0,0,1,1.121,1.626,3.558,3.558,0,0,1,.2.926A3.738,3.738,0,0,1,19.772,17.3a3.678,3.678,0,0,1-1.583.9,3.256,3.256,0,0,1-.83.133q-.407,0-.813,0h-.824a.838.838,0,0,0-.086,0,.536.536,0,0,0,.08,1.068l.761,0,.663,0a5.031,5.031,0,0,0,1.105-.117,4.672,4.672,0,0,0,1-.34,4.884,4.884,0,0,0,1.732-1.386,4.714,4.714,0,0,0,.989-2.385A4.816,4.816,0,0,0,21.862,13.446Z"/><path class="cls-2" d="M13.646,17.575q.606,0,1.211,0a1.286,1.286,0,0,0,.692-.218,1.452,1.452,0,0,0,.682-1.263c0-.215,0-.431,0-.647V12.475a1.452,1.452,0,0,0-1.452-1.467l-.528,0-.462,0c0-.221,0-.442,0-.663a.54.54,0,0,0-.556-.558l-2.4,0a.533.533,0,0,0-.559.561v.661H9.743c-.175,0-.351,0-.527,0a1.263,1.263,0,0,0-.6.165A1.437,1.437,0,0,0,7.832,12.5V13.62q0,1.233,0,2.467a1.425,1.425,0,0,0,.144.66,1.374,1.374,0,0,0,1.227.819q.585.011,1.17.01.414,0,.828,0l.578,0v0Zm-4.99-5.121a.626.626,0,0,1,.631-.624q1.374,0,2.747,0h2.717a.638.638,0,0,1,.655.624c0,.494,0,.988,0,1.482,0,.056-.022.069-.073.069q-.784,0-1.57,0c-.057,0-.075-.02-.075-.076,0-.177,0-.354,0-.531a.293.293,0,0,0-.311-.308c-.177,0-.354,0-.531,0-.056,0-.076-.016-.075-.074,0-.174,0-.349,0-.523a.294.294,0,0,0-.315-.319c-.284,0-.567,0-.85,0a.294.294,0,0,0-.325.323c0,.165,0,.329,0,.494,0,.1,0,.1-.1.1-.168,0-.335,0-.5,0a.306.306,0,0,0-.321.323c.008.172,0,.344,0,.516,0,.061-.022.079-.08.079q-.781,0-1.562,0c-.057,0-.076-.017-.076-.075C8.656,13.438,8.653,12.946,8.656,12.454ZM11.1,10.683c0-.055.017-.076.075-.076q.859,0,1.72,0c.057,0,.077.019.076.076,0,.164,0,.329,0,.493,0,.061-.021.08-.08.079-.285,0-.571,0-.856,0v0c-.281,0-.562,0-.842,0-.076,0-.1-.024-.093-.1C11.1,11,11.1,10.843,11.1,10.683Zm1.108,4.161c0,.056-.018.079-.075.076a1.964,1.964,0,0,0-.2,0c-.052,0-.067-.02-.067-.069,0-.177,0-.353,0-.53A.3.3,0,0,0,11.543,14c-.174,0-.348,0-.523,0-.055,0-.08-.014-.076-.073a1.983,1.983,0,0,0,0-.2c0-.05.019-.068.069-.067.181,0,.363,0,.545,0a.286.286,0,0,0,.3-.3c0-.18,0-.359,0-.538,0-.06.018-.083.079-.079a1.7,1.7,0,0,0,.189,0c.055,0,.079.017.076.075,0,.094,0,.189,0,.283h0c0,.095,0,.189,0,.283a.28.28,0,0,0,.274.274c.186,0,.373,0,.559,0,.064,0,.087.021.083.084a1.49,1.49,0,0,0,0,.189c0,.054-.018.073-.071.072-.174,0-.349.005-.523,0a.3.3,0,0,0-.324.326C12.211,14.5,12.2,14.672,12.205,14.844ZM8.754,16.462a.549.549,0,0,1-.1-.307q0-.752,0-1.5c0-.056.019-.076.076-.075q1.239,0,2.478,0c.066,0,.082.026.081.086,0,.177,0,.354,0,.531a.282.282,0,0,0,.3.3c.3,0,.6,0,.893,0a.285.285,0,0,0,.295-.293c0-.179,0-.358,0-.537,0-.061.014-.086.081-.086q1.236,0,2.471,0c.065,0,.082.022.082.084q0,.727,0,1.454a.639.639,0,0,1-.64.64c-.913,0-1.826,0-2.74,0h0q-1.357,0-2.717,0A.628.628,0,0,1,8.754,16.462Z"/><path class="cls-2" d="M17.8,5.416a3.617,3.617,0,0,1,.98.147,3.288,3.288,0,0,1,.822.37A3.416,3.416,0,0,1,20.74,7.1a3.035,3.035,0,0,1,.386.98c.048.248.062.5.085.755a.3.3,0,0,0,.29.279.3.3,0,0,0,.283-.289c0-.049,0-.1,0-.146h.01c-.014-.107-.03-.215-.041-.322a3.777,3.777,0,0,0-.306-1.128,3.917,3.917,0,0,0-1.26-1.588A3.825,3.825,0,0,0,18.7,4.949a3.94,3.94,0,0,0-.892-.1.286.286,0,1,0-.009.572Z"/><path class="cls-2" d="M19.79,8a2.07,2.07,0,0,1,.166.8.288.288,0,1,0,.574,0,3,3,0,0,0-.073-.6,2.624,2.624,0,0,0-.511-1.061A2.707,2.707,0,0,0,17.928,6.1a1.682,1.682,0,0,0-.174,0,.285.285,0,0,0-.225.369.294.294,0,0,0,.3.2A2.154,2.154,0,0,1,19.79,8Z"/><path class="cls-2" d="M17.869,7.322c-.032,0-.063,0-.095,0a.286.286,0,0,0,.042.57.88.88,0,0,1,.48.143.913.913,0,0,1,.437.782.288.288,0,1,0,.575-.014,1.455,1.455,0,0,0-.149-.63A1.5,1.5,0,0,0,17.869,7.322Z"/></svg>