<svg id="Layer_1" data-name="Layer 1" xmlns="http://www.w3.org/2000/svg" viewBox="0 0 24 24"><defs><style>.cls-1{fill:none;}.cls-2{fill:#424242;}</style></defs><rect class="cls-1" width="24" height="24"/><path class="cls-2" d="M20,4H4A2.006,2.006,0,0,0,2,6V9H4V6H20V9h2V6A2.006,2.006,0,0,0,20,4Z"/><path class="cls-2" d="M20,18H4V15H2v3a2.006,2.006,0,0,0,2,2H20a2.006,2.006,0,0,0,2-2V15H20Z"/><path class="cls-2" d="M14.89,7.55a1.04,1.04,0,0,0-1.79,0L10,13.76,8.89,11.55A.988.988,0,0,0,8,11H2v2H7.38L9.1,16.45A1.014,1.014,0,0,0,10,17a.988.988,0,0,0,.89-.55L14,10.24l1.11,2.21A.988.988,0,0,0,16,13h6V11H16.62Z"/></svg>