<svg id="Layer_1" data-name="Layer 1" xmlns="http://www.w3.org/2000/svg" viewBox="0 0 24 24"><defs><style>.cls-1{fill:none;}.cls-2{fill:#424242;}</style></defs><rect class="cls-1" width="24" height="24"/><path class="cls-2" d="M15.82,7.22l-1,.4a3,3,0,0,0-.67-.39L14,6.17A.2.2,0,0,0,13.8,6H12.2a.186.186,0,0,0-.19.17l-.15,1.06a2.8,2.8,0,0,0-.67.39l-1-.4a.193.193,0,0,0-.24.09l-.8,1.38a.2.2,0,0,0,.05.26l.85.66A1.666,1.666,0,0,0,10,10a2.561,2.561,0,0,0,.03.39l-.84.66a.189.189,0,0,0-.05.25l.8,1.39a.206.206,0,0,0,.25.09l.99-.4a2.86,2.86,0,0,0,.68.39L12,13.83a.2.2,0,0,0,.2.17h1.6a.2.2,0,0,0,.2-.17l.15-1.06a2.8,2.8,0,0,0,.67-.39l.99.4a.183.183,0,0,0,.24-.09l.8-1.39a.187.187,0,0,0-.05-.25l-.83-.66A2.561,2.561,0,0,0,16,10a2.376,2.376,0,0,0-.03-.39l.85-.66a.2.2,0,0,0,.05-.26l-.8-1.38A.21.21,0,0,0,15.82,7.22ZM13,11.43A1.43,1.43,0,1,1,14.43,10,1.43,1.43,0,0,1,13,11.43Z"/><path class="cls-2" d="M19.94,9.06a7.064,7.064,0,0,0-6.53-6.05C13.27,3,13.14,3,13,3A7,7,0,0,0,6.08,9L4.15,12.48A1,1,0,0,0,5,14H6v2a2.006,2.006,0,0,0,2,2H9v3h7V16.32A7.016,7.016,0,0,0,19.94,9.06Zm-5.05,5.57-.89.42V19H11V16H8V12H6.7L8.03,9.67a4.991,4.991,0,1,1,6.86,4.96Z"/></svg>