<svg id="Layer_1" data-name="Layer 1" xmlns="http://www.w3.org/2000/svg" viewBox="0 0 24 24"><defs><style>.cls-1{fill:none;}.cls-2{fill:#db1962;}</style></defs><path class="cls-1" d="M0,0H24V24H0Z"/><path class="cls-2" d="M12,9a14.911,14.911,0,0,0-4.6.72v3.1a1.008,1.008,0,0,1-.56.9,11.511,11.511,0,0,0-2.66,1.85.982.982,0,0,1-.7.28,1,1,0,0,1-.71-.29L.29,13.08a.956.956,0,0,1-.29-.7,1,1,0,0,1,.29-.71,17.016,17.016,0,0,1,23.42,0,1.014,1.014,0,0,1,0,1.42l-2.48,2.48a1,1,0,0,1-.71.29,1.026,1.026,0,0,1-.7-.28,11.27,11.27,0,0,0-2.67-1.85,1,1,0,0,1-.56-.9V9.73A14.516,14.516,0,0,0,12,9Z"/></svg>